<svg viewBox="0 0 548.358 548.358" xmlns="http://www.w3.org/2000/svg">
  <style>
    <![CDATA[:root>svg{display:none}:root>svg:target{display:block}]]>
  </style>
  <svg viewBox="0 0 24 24" id="icon-check" xmlns="http://www.w3.org/2000/svg">
    <path d="M21 7 9 19l-5.5-5.5 1.41-1.41L9 16.17 19.59 5.59 21 7z"/>
  </svg>
  <svg viewBox="0 0 36 31" id="icon-detective" xmlns="http://www.w3.org/2000/svg">
    <path d="M18 9.758a.706.706 0 0 0-.703.708c0 .391.315.708.703.708a.706.706 0 0 0 .703-.708.706.706 0 0 0-.703-.708z"/>
    <path d="M33.89 14.007h-2.735C29.712 9.859 27.62 2.587 23.829.53c-1.896-1.028-3.688-.31-4.362 1.148A1.59 1.59 0 0 1 18 2.625a1.59 1.59 0 0 1-1.467-.946C15.883.27 14.133-.514 12.304.38 8.453 2.264 6.3 9.828 4.845 14.007H2.11c-1.166 0-2.11.95-2.11 2.123a2.12 2.12 0 0 0 2.11 2.124h31.78c1.166 0 2.11-.95 2.11-2.124a2.12 2.12 0 0 0-2.11-2.124zM7.316 11.174h7.872a.706.706 0 0 0 .704-.708.706.706 0 0 0-.704-.708h-7.38c2.12-5.896 4.1-7.609 5.111-8.104 1.104-.54 2.013-.088 2.34.622A2.996 2.996 0 0 0 18 4.041a2.996 2.996 0 0 0 2.742-1.765c.337-.73 1.25-1.134 2.42-.5 1.016.552 2.99 2.322 5.03 7.982h-7.38a.706.706 0 0 0-.703.708c0 .391.315.708.703.708h7.873c.355 1.033.725 2.098.98 2.833H6.335c.255-.733.623-1.796.98-2.833zm26.576 5.665H2.109a.706.706 0 0 1-.703-.708c0-.391.315-.708.703-.708h31.782c.387 0 .703.317.703.708 0 .39-.315.708-.703.708zm-17.298 4.248H5.344a.705.705 0 0 0-.703.708v2.832C4.64 28.142 7.479 31 10.969 31a6.316 6.316 0 0 0 5.915-4.105 2.681 2.681 0 0 1 2.232 0A6.315 6.315 0 0 0 25.031 31c3.49 0 6.328-2.859 6.328-6.373v-2.832a.706.706 0 0 0-.703-.708h-11.25a.706.706 0 0 0-.703.708v.708h-1.406v-.708a.705.705 0 0 0-.703-.708zm-5.625 8.497c-2.714 0-4.922-2.224-4.922-4.956v-2.125h9.844v2.125c0 2.74-2.197 4.956-4.922 4.956zm9.14-7.08h9.844v2.123c0 2.733-2.208 4.957-4.922 4.957-2.732 0-4.922-2.223-4.922-4.956v-2.125zm-1.406 1.415v.709c0 .226.013.451.036.675a4.08 4.08 0 0 0-1.478 0 6.62 6.62 0 0 0 .036-.675v-.709h1.406z"/>
    <path d="M10.969 26.752a2.12 2.12 0 0 1-2.11-2.125.705.705 0 0 0-.703-.708.705.705 0 0 0-.703.708c0 1.952 1.577 3.54 3.516 3.54a.706.706 0 0 0 .703-.707.706.706 0 0 0-.703-.708zm14.062 1.416c1.939 0 3.516-1.589 3.516-3.54a.706.706 0 0 0-.703-.709.706.706 0 0 0-.703.708 2.12 2.12 0 0 1-2.11 2.125.706.706 0 0 0-.703.708c0 .39.315.708.703.708z"/>
  </svg>
  <svg viewBox="0 0 19 14" id="icon-envelope" xmlns="http://www.w3.org/2000/svg">
    <path d="M16.68 0H2.323C1.042 0 0 1.009 0 2.25v9.5C0 12.991 1.042 14 2.323 14h14.354C17.958 14 19 12.991 19 11.75V2.253C19.004 1.013 17.962 0 16.68 0zm1.262 11.75c0 .674-.566 1.222-1.262 1.222H2.323c-.695 0-1.262-.548-1.262-1.222V2.253c0-.673.567-1.221 1.262-1.221h14.354c.695 0 1.262.548 1.262 1.221v9.497h.003z"/>
    <path d="m11.983 6.882 4.646-4.035a.505.505 0 0 0 .04-.727.546.546 0 0 0-.751-.038L9.51 7.651 8.26 6.57c-.004-.004-.008-.008-.008-.012a.78.78 0 0 0-.087-.072L3.078 2.078a.542.542 0 0 0-.75.042.502.502 0 0 0 .043.727l4.702 4.07L2.39 11.16a.504.504 0 0 0-.023.727.541.541 0 0 0 .75.027l4.754-4.305L9.16 8.724a.54.54 0 0 0 .708-.004l1.325-1.15 4.725 4.348c.102.095.236.14.366.14a.537.537 0 0 0 .385-.16.504.504 0 0 0-.02-.726l-4.666-4.29z"/>
  </svg>
  <svg viewBox="0 0 512 512" id="icon-fb" xmlns="http://www.w3.org/2000/svg">
    <path d="M308.3 508.5c-2.5.1-4.1.3-5.7.3-34.2 0-68.3-.1-102.5.1-4.8 0-6.1-1.3-6.1-6.1.1-79.6.1-159.3.1-238.9V257H139v-85h5.4c15 0 30-.1 45 .1 3.8 0 4.8-1.1 4.8-4.8-.2-22.3-.2-44.7 0-67 .1-15.6 2.6-30.8 9.8-44.9 10.3-19.9 26.6-32.8 47.2-40.8 16.8-6.6 34.5-9 52.3-9.3 29-.4 58-.2 87-.3 2.7 0 4.9-.1 4.9 3.7-.1 27.5-.1 55-.1 82.5 0 .3-.1.6-.5 1.9h-5.5c-18 0-36-.1-54 0-10.4 0-18.8 4.2-24.1 13.3-1.6 2.7-2.6 6.2-2.6 9.4-.3 17 0 34-.2 51 0 4 1.2 5.1 5.1 5.1 25-.2 50-.1 75-.1h7.3c-3.5 28.6-6.9 56.6-10.4 84.9h-77.1v251.8z"/>
  </svg>
  <svg viewBox="0 0 35 35" id="icon-hired" xmlns="http://www.w3.org/2000/svg">
    <path d="M31.264 27.893a3.132 3.132 0 0 0 .597-1.842v-4.108a.684.684 0 0 0-.684-.683h-3.055a2.564 2.564 0 0 0-2.561 2.561v2.23c0 .687.222 1.323.596 1.841a4.402 4.402 0 0 0-1.336.445 5.817 5.817 0 0 0-4.294-2.56l-.021-.005a4.02 4.02 0 0 0 1.03-2.69V17.5a.684.684 0 0 0-.684-.684H16.7a3.24 3.24 0 0 0-3.236 3.236v3.03a4.02 4.02 0 0 0 1.03 2.69l-.021.005a5.816 5.816 0 0 0-4.294 2.56c-.42-.22-.87-.369-1.337-.445a3.132 3.132 0 0 0 .597-1.84v-4.109a.684.684 0 0 0-.684-.683H5.7a2.564 2.564 0 0 0-2.56 2.561v2.23c0 .688.221 1.324.596 1.842A4.464 4.464 0 0 0 0 32.291v2.025c0 .378.306.684.684.684h33.632a.684.684 0 0 0 .684-.684v-2.025a4.464 4.464 0 0 0-3.736-4.398zM4.506 23.821c0-.658.536-1.194 1.194-1.194h2.372v.832a.74.74 0 0 1-.74.74H4.506v-.378zm0 1.746h2.826c.26 0 .51-.048.74-.135v.62c0 .982-.8 1.782-1.783 1.782-.983 0-1.783-.8-1.783-1.783v-.484zm2.224 3.634-.44.44-.442-.44h.882zm2.468 2.363v2.069h-7.83V32.29a3.095 3.095 0 0 1 2.588-3.049l1.85 1.85a.684.684 0 0 0 .966 0l1.85-1.85c.327.053.642.158.934.312a5.784 5.784 0 0 0-.358 2.01zm8.302-5.813a2.672 2.672 0 0 1-2.668-2.668v-.904h4.085c.453 0 .88-.115 1.252-.319v1.223a2.672 2.672 0 0 1-2.669 2.669zm1.192 1.368L17.5 28.31l-1.192-1.191h2.384zm-3.86-7.067a1.87 1.87 0 0 1 1.868-1.868h3.469v1.377c0 .69-.562 1.251-1.252 1.251H14.83v-.76zm9.603 13.58h-13.87v-1.366h4.451a.684.684 0 1 0 0-1.368h-4.4a4.455 4.455 0 0 1 3.8-3.738l2.6 2.6a.682.682 0 0 0 .967 0l2.601-2.6a4.451 4.451 0 0 1 3.85 4.404v2.069zm2.493-9.81c0-.66.536-1.195 1.194-1.195h2.372v.832a.74.74 0 0 1-.74.74h-2.826v-.378zm0 1.745h2.825c.26 0 .51-.048.74-.135v.62c0 .982-.799 1.782-1.782 1.782s-1.783-.8-1.783-1.783v-.484zm2.224 3.634-.441.44-.44-.44h.88zm-3.35 4.432v-2.069c0-.706-.127-1.383-.358-2.01.292-.154.606-.26.933-.312l1.85 1.85a.684.684 0 0 0 .967 0l1.85-1.85a3.095 3.095 0 0 1 2.589 3.05v1.34h-7.831zM20.869 4.466a.684.684 0 0 0-.967 0l-3.354 3.355-1.45-1.45a.684.684 0 1 0-.967.967l1.933 1.933a.684.684 0 0 0 .967 0l3.838-3.838a.684.684 0 0 0 0-.966z"/>
    <path d="M20.295.593a.684.684 0 0 0-.557 1.248 5.51 5.51 0 0 1 3.264 5.028A5.508 5.508 0 0 1 17.5 12.37a5.508 5.508 0 0 1-5.502-5.501 5.515 5.515 0 0 1 3.24-5.017.683.683 0 1 0-.563-1.246 6.885 6.885 0 0 0-4.044 6.263 6.877 6.877 0 0 0 6.869 6.868 6.876 6.876 0 0 0 6.869-6.868A6.88 6.88 0 0 0 20.295.593z"/>
    <path d="M17.524 0H17.5a.684.684 0 0 0 0 1.367h.021A.684.684 0 0 0 17.524 0zm.459 31.099a.688.688 0 0 0-.483-.2.689.689 0 0 0-.483.2.689.689 0 0 0-.2.483.684.684 0 0 0 .683.683.688.688 0 0 0 .684-.683.689.689 0 0 0-.2-.483z"/>
  </svg>
  <svg viewBox="0 0 32 32" id="icon-ok" xmlns="http://www.w3.org/2000/svg">
    <path d="M15 8.328a2.353 2.353 0 0 1 2.351 2.35 2.353 2.353 0 0 1-2.35 2.35 2.354 2.354 0 0 1-2.352-2.35A2.354 2.354 0 0 1 15 8.328zm0 8.027a5.682 5.682 0 0 0 5.678-5.677A5.683 5.683 0 0 0 15 5a5.684 5.684 0 0 0-5.678 5.678A5.683 5.683 0 0 0 15 16.355zm2.297 4.631c1.156-.263 2.27-.72 3.297-1.365a1.664 1.664 0 0 0-1.772-2.817 7.208 7.208 0 0 1-7.644 0 1.663 1.663 0 0 0-1.772 2.817 10.65 10.65 0 0 0 3.296 1.365l-3.174 3.175a1.664 1.664 0 0 0 2.354 2.352l3.117-3.12 3.121 3.12a1.662 1.662 0 1 0 2.352-2.352l-3.175-3.175z"/>
  </svg>
  <svg viewBox="0 0 18 18" id="icon-phone" xmlns="http://www.w3.org/2000/svg">
    <path d="M14.233 11.15c-.369-.383-.814-.588-1.286-.588-.468 0-.917.2-1.3.585l-1.203 1.196c-.099-.053-.198-.102-.293-.152a4.832 4.832 0 0 1-.377-.201c-1.126-.714-2.15-1.645-3.13-2.85-.476-.6-.796-1.105-1.028-1.618.312-.285.601-.581.883-.866l.32-.323c.798-.798.798-1.831 0-2.629l-1.04-1.037c-.117-.118-.24-.24-.353-.36A17.952 17.952 0 0 0 4.71 1.6c-.369-.365-.81-.559-1.274-.559-.464 0-.913.194-1.294.559l-.007.007L.84 2.91a2.778 2.778 0 0 0-.825 1.767c-.092 1.11.236 2.142.487 2.819.616 1.66 1.537 3.198 2.91 4.847a17.9 17.9 0 0 0 5.962 4.662c.875.414 2.043.904 3.348.987.08.004.163.008.24.008.878 0 1.617-.315 2.195-.942.004-.008.011-.012.015-.02.198-.239.426-.455.666-.687.163-.156.33-.319.494-.49.377-.391.575-.847.575-1.314 0-.471-.202-.924-.586-1.303l-2.089-2.094zm1.362 4c-.004 0-.004.005 0 0-.148.16-.3.305-.464.464a9.977 9.977 0 0 0-.734.76c-.384.41-.837.604-1.43.604-.058 0-.119 0-.176-.004-1.13-.072-2.18-.513-2.967-.889a16.898 16.898 0 0 1-5.616-4.391C2.911 10.132 2.043 8.689 1.47 7.139c-.354-.946-.483-1.683-.426-2.379.038-.444.21-.813.525-1.128l1.297-1.295c.187-.175.385-.27.579-.27.24 0 .433.144.555.266l.011.011c.233.217.453.44.685.68.118.122.24.243.362.369L6.095 4.43c.404.403.404.775 0 1.178-.11.11-.217.22-.327.326-.32.327-.624.63-.955.927-.007.008-.015.012-.019.02-.327.326-.266.645-.198.862l.012.034c.27.653.65 1.269 1.229 2.002l.003.004c1.05 1.291 2.158 2.298 3.379 3.07.156.098.316.178.468.254.137.068.266.133.377.201.015.008.03.02.045.027.13.064.251.095.377.095.316 0 .513-.198.578-.262l1.301-1.3c.13-.129.335-.285.575-.285.236 0 .43.149.548.278l.007.007 2.097 2.094c.391.387.391.786.003 1.189zM9.728 4.282a4.827 4.827 0 0 1 2.626 1.36 4.84 4.84 0 0 1 1.362 2.621.51.51 0 0 0 .506.426c.03 0 .057-.004.087-.008a.513.513 0 0 0 .422-.593 5.856 5.856 0 0 0-1.647-3.172 5.871 5.871 0 0 0-3.177-1.645.516.516 0 0 0-.593.418.507.507 0 0 0 .414.593zm8.264 3.658a9.635 9.635 0 0 0-2.713-5.223 9.659 9.659 0 0 0-5.23-2.71.512.512 0 1 0-.168 1.011 8.65 8.65 0 0 1 4.676 2.42 8.601 8.601 0 0 1 2.423 4.67.51.51 0 0 0 .506.425c.03 0 .057-.004.088-.008a.503.503 0 0 0 .418-.585z"/>
  </svg>
  <svg viewBox="0 0 29 35" id="icon-stopwatch" xmlns="http://www.w3.org/2000/svg">
    <path d="M3.188 11.662 1.702 10.19a2.038 2.038 0 0 1 0-2.9c.807-.8 2.122-.8 2.929 0l1.587 1.572a14.58 14.58 0 0 1 5.52-2.311V4.51h-1.38a.687.687 0 0 1-.691-.683V2.051C9.667.92 10.596 0 11.738 0h5.524c1.142 0 2.071.92 2.071 2.05v1.778a.687.687 0 0 1-.69.684h-1.381V6.55a14.578 14.578 0 0 1 5.52 2.31l1.587-1.57c.807-.8 2.121-.8 2.93 0a2.04 2.04 0 0 1 0 2.9l-1.487 1.471A14.252 14.252 0 0 1 29 20.644C29 28.56 22.495 35 14.5 35S0 28.56 0 20.645c0-3.277 1.128-6.442 3.188-8.983zm.467-3.405a.696.696 0 0 0-.977 0 .68.68 0 0 0 0 .967l1.427 1.412c.322-.327.659-.638 1.01-.934l-1.46-1.445zm14.297-6.206a.688.688 0 0 0-.69-.684h-5.524c-.38 0-.69.307-.69.684v1.094h6.904V2.05zM13.12 4.51v1.843a15.006 15.006 0 0 1 2.762 0V4.512H13.12zm13.203 3.746a.696.696 0 0 0-.977 0l-1.46 1.445c.351.296.688.607 1.01.934l1.427-1.412a.68.68 0 0 0 0-.967zM14.5 33.633c7.234 0 13.119-5.827 13.119-12.989 0-3.159-1.158-6.202-3.262-8.57A13.177 13.177 0 0 0 14.5 7.656a13.18 13.18 0 0 0-7.936 2.645 13.19 13.19 0 0 0-1.921 1.771 12.898 12.898 0 0 0-3.262 8.572c0 7.161 5.885 12.988 13.119 12.988z"/>
    <path d="M14.5 22.695a2.063 2.063 0 0 1-2.071-2.05c0-.892.577-1.651 1.38-1.934V13.81c0-.378.31-.684.691-.684.382 0 .69.306.69.684v4.902a2.056 2.056 0 0 1 1.382 1.934c0 1.13-.93 2.05-2.072 2.05zm0-2.734c-.38 0-.69.306-.69.684 0 .377.31.683.69.683.38 0 .69-.306.69-.683a.688.688 0 0 0-.69-.684z"/>
    <path d="M7.145 13.433a.54.54 0 0 1 .033-.037l.04-.037a10.417 10.417 0 0 1 4.353-2.55.682.682 0 1 1 .391 1.311 9.028 9.028 0 0 0-3.298 1.78l.466.46c.27.268.27.7 0 .968a.692.692 0 0 1-.977 0l-.467-.462A8.758 8.758 0 0 0 5.55 19.96h.664c.382 0 .69.306.69.684a.686.686 0 0 1-.69.683H5.55a8.757 8.757 0 0 0 2.136 5.096l.467-.463a.696.696 0 0 1 .977 0c.27.267.27.7 0 .967l-.467.462a8.941 8.941 0 0 0 5.147 2.115v-.657c0-.378.309-.684.69-.684.381 0 .69.306.69.684v.657a8.939 8.939 0 0 0 5.147-2.115l-.467-.462a.679.679 0 0 1 0-.967.696.696 0 0 1 .977 0l.467.463a8.758 8.758 0 0 0 2.136-5.096h-.664a.687.687 0 0 1-.69-.683c0-.378.308-.684.69-.684h.664a8.758 8.758 0 0 0-2.136-5.095l-.467.462a.692.692 0 0 1-.977 0 .68.68 0 0 1 0-.967l.466-.461a9.024 9.024 0 0 0-3.298-1.78.682.682 0 0 1-.466-.85.692.692 0 0 1 .857-.462 10.414 10.414 0 0 1 4.351 2.55.672.672 0 0 1 .042.037l.033.037a10.132 10.132 0 0 1 3.002 7.213c0 2.718-1.066 5.277-3.002 7.211a.555.555 0 0 1-.033.037.38.38 0 0 1-.037.033 10.34 10.34 0 0 1-7.285 2.972c-2.746 0-5.33-1.055-7.284-2.971l-.038-.034c-.012-.011-.022-.024-.033-.036a10.132 10.132 0 0 1-3.002-7.212 10.13 10.13 0 0 1 3.002-7.212z"/>
    <path d="M14.5 11.758a.687.687 0 0 1-.69-.684c0-.377.309-.683.69-.683.381 0 .69.306.69.683a.688.688 0 0 1-.69.684z"/>
  </svg>
  <svg viewBox="0 0 35 35" id="icon-tag" xmlns="http://www.w3.org/2000/svg">
    <path d="M11.07 8.585a.689.689 0 0 0-.483-.2.689.689 0 0 0-.483.2.69.69 0 0 0-.2.483.685.685 0 0 0 1.167.483.69.69 0 0 0 .2-.483.689.689 0 0 0-.2-.483z"/>
    <path d="m34.8 2.859-.845-.847.845-.845A.684.684 0 0 0 33.833.2l-.844.845-.833-.834a.683.683 0 0 0-.484-.2L20.102.003H20.1c-.913 0-1.772.356-2.418 1.002L11.908 6.78a.684.684 0 0 0 .967.967l5.774-5.774A2.04 2.04 0 0 1 20.1 1.37h.002l11.286.007.634.634-2.537 2.537a2.805 2.805 0 0 0-3.419.422 2.783 2.783 0 0 0-.82 1.98c0 .748.291 1.452.82 1.98a2.792 2.792 0 0 0 1.98.82c.717 0 1.434-.273 1.98-.82a2.806 2.806 0 0 0 .425-3.415l2.537-2.537.645.646-.007 11.273a2.04 2.04 0 0 1-.601 1.451L16.344 33.033a2.04 2.04 0 0 1-1.452.601 2.04 2.04 0 0 1-1.452-.601L1.97 21.559a2.04 2.04 0 0 1-.602-1.452c0-.548.214-1.064.602-1.452l7.368-7.37a.684.684 0 0 0-.966-.966L1 17.689a3.399 3.399 0 0 0-1 2.417c0 .914.356 1.773 1.002 2.42L12.473 34a3.41 3.41 0 0 0 2.419 1 3.41 3.41 0 0 0 2.419-1l16.68-16.684a3.4 3.4 0 0 0 1.003-2.417L35 3.342a.683.683 0 0 0-.2-.483zm-5.74 5.106c-.271.27-.631.42-1.014.42s-.742-.15-1.013-.42a1.435 1.435 0 0 1 1.013-2.447c.139 0 .277.02.41.06l-.789.789a.684.684 0 0 0 .967.967l.787-.787a1.434 1.434 0 0 1-.361 1.418z"/>
    <path d="m29.2 13.764-7.966-7.967a2.71 2.71 0 0 0-3.828 0L4.8 18.406a2.69 2.69 0 0 0-.793 1.914c0 .723.282 1.403.793 1.914l7.967 7.968c.511.51 1.19.793 1.914.793.723 0 1.402-.282 1.913-.793L29.2 17.592a2.69 2.69 0 0 0 .793-1.913 2.69 2.69 0 0 0-.793-1.915zm-.966 2.862L15.627 29.235a1.33 1.33 0 0 1-.947.392 1.33 1.33 0 0 1-.947-.392l-7.967-7.968a1.33 1.33 0 0 1-.392-.947c0-.358.139-.695.392-.948L18.373 6.764c.261-.262.604-.392.947-.392.343 0 .686.13.947.392l7.967 7.967c.253.253.392.59.392.948 0 .357-.14.694-.392.947z"/>
    <path d="M22.29 13.677a.684.684 0 0 0-.966-.967l-.394.394c-1.051-.65-2.4-.563-3.252.29a2.48 2.48 0 0 0-.716 1.9 2.876 2.876 0 0 0 .853 1.892c.55.55.611 1.384.137 1.859-.475.474-1.309.413-1.859-.137s-.61-1.384-.136-1.859a.684.684 0 0 0-.967-.967c-.853.853-.94 2.202-.29 3.253l-.468.467a.684.684 0 0 0 .968.967l.467-.467c.46.283.975.427 1.482.427.652 0 1.29-.238 1.77-.717 1.007-1.008.946-2.709-.137-3.792a1.512 1.512 0 0 1-.454-.991 1.13 1.13 0 0 1 .317-.868c.474-.475 1.308-.413 1.858.137s.611 1.384.137 1.858a.684.684 0 0 0 .966.967c.853-.852.94-2.201.29-3.252l.394-.394zm-6.918 11.335L11.86 21.5a.684.684 0 0 0-.967.967l3.511 3.512a.682.682 0 0 0 .967 0 .684.684 0 0 0 0-.967zm-5.384-5.385a.688.688 0 0 0-.483-.2.69.69 0 0 0-.483.2.69.69 0 0 0-.2.484.684.684 0 0 0 .683.683.688.688 0 0 0 .684-.683.689.689 0 0 0-.2-.484z"/>
  </svg>
  <svg viewBox="0 0 548.358 548.358" id="icon-vk" xmlns="http://www.w3.org/2000/svg">
    <path d="M545.451 400.298c-.664-1.431-1.283-2.618-1.858-3.569-9.514-17.135-27.695-38.167-54.532-63.102l-.567-.571-.284-.28-.287-.287h-.288c-12.18-11.611-19.893-19.418-23.123-23.415-5.91-7.614-7.234-15.321-4.004-23.13 2.282-5.9 10.854-18.36 25.696-37.397 7.807-10.089 13.99-18.175 18.556-24.267 32.931-43.78 47.208-71.756 42.828-83.939l-1.701-2.847c-1.143-1.714-4.093-3.282-8.846-4.712-4.764-1.427-10.853-1.663-18.278-.712l-82.224.568c-1.332-.472-3.234-.428-5.712.144l-3.713.859-1.431.715-1.136.859c-.952.568-1.999 1.567-3.142 2.995-1.137 1.423-2.088 3.093-2.848 4.996-8.952 23.031-19.13 44.444-30.553 64.238-7.043 11.803-13.511 22.032-19.418 30.693-5.899 8.658-10.848 15.037-14.842 19.126-4 4.093-7.61 7.372-10.852 9.849-3.237 2.478-5.708 3.525-7.419 3.142-1.715-.383-3.33-.763-4.859-1.143-2.663-1.714-4.805-4.045-6.42-6.995-1.622-2.95-2.714-6.663-3.285-11.136-.568-4.476-.904-8.326-1-11.563-.089-3.233-.048-7.806.145-13.706.198-5.903.287-9.897.287-11.991 0-7.234.141-15.085.424-23.555.288-8.47.521-15.181.716-20.125.194-4.949.284-10.185.284-15.705s-.336-9.849-1-12.991a44.442 44.442 0 0 0-2.99-9.137c-1.335-2.95-3.289-5.232-5.853-6.852-2.569-1.618-5.763-2.902-9.564-3.856-10.089-2.283-22.936-3.518-38.547-3.71-35.401-.38-58.148 1.906-68.236 6.855-3.997 2.091-7.614 4.948-10.848 8.562-3.427 4.189-3.905 6.475-1.431 6.851 11.422 1.711 19.508 5.804 24.267 12.275l1.715 3.429c1.334 2.474 2.666 6.854 3.999 13.134 1.331 6.28 2.19 13.227 2.568 20.837.95 13.897.95 25.793 0 35.689-.953 9.9-1.853 17.607-2.712 23.127-.859 5.52-2.143 9.993-3.855 13.418-1.715 3.426-2.856 5.52-3.428 6.28-.571.76-1.047 1.239-1.425 1.427a21.387 21.387 0 0 1-7.71 1.431c-2.667 0-5.901-1.334-9.707-4-3.805-2.666-7.754-6.328-11.847-10.992-4.093-4.665-8.709-11.184-13.85-19.558-5.137-8.374-10.467-18.271-15.987-29.691l-4.567-8.282c-2.855-5.328-6.755-13.086-11.704-23.267-4.952-10.185-9.329-20.037-13.134-29.554-1.521-3.997-3.806-7.04-6.851-9.134l-1.429-.859c-.95-.76-2.475-1.567-4.567-2.427a30.301 30.301 0 0 0-6.567-1.854l-78.229.568c-7.994 0-13.418 1.811-16.274 5.428l-1.143 1.711c-.571.953-.859 2.475-.859 4.57 0 2.094.571 4.664 1.714 7.707 11.42 26.84 23.839 52.725 37.257 77.659 13.418 24.934 25.078 45.019 34.973 60.237 9.897 15.229 19.985 29.602 30.264 43.112 10.279 13.515 17.083 22.176 20.412 25.981 3.333 3.812 5.951 6.662 7.854 8.565l7.139 6.851c4.568 4.569 11.276 10.041 20.127 16.416 8.853 6.379 18.654 12.659 29.408 18.85 10.756 6.181 23.269 11.225 37.546 15.126 14.275 3.905 28.169 5.472 41.684 4.716h32.834c6.659-.575 11.704-2.669 15.133-6.283l1.136-1.431c.764-1.136 1.479-2.901 2.139-5.276.668-2.379 1-5 1-7.851-.195-8.183.428-15.558 1.852-22.124 1.423-6.564 3.045-11.513 4.859-14.846 1.813-3.33 3.859-6.14 6.136-8.418 2.282-2.283 3.908-3.666 4.862-4.142.948-.479 1.705-.804 2.276-.999 4.568-1.522 9.944-.048 16.136 4.429 6.187 4.473 11.99 9.996 17.418 16.56 5.425 6.57 11.943 13.941 19.555 22.124 7.617 8.186 14.277 14.271 19.985 18.274l5.708 3.426c3.812 2.286 8.761 4.38 14.853 6.283 6.081 1.902 11.409 2.378 15.984 1.427l73.087-1.14c7.229 0 12.854-1.197 16.844-3.572 3.998-2.379 6.373-5 7.139-7.851.764-2.854.805-6.092.145-9.712-.677-3.611-1.344-6.136-2.008-7.563z"/>
  </svg>
</svg>
