<?xml version="1.0" encoding="utf-8"?><svg viewBox="0 0 38 38" xmlns="http://www.w3.org/2000/svg" xmlns:xlink="http://www.w3.org/1999/xlink"><style>:root>svg{display:none}:root>svg:target{display:block}</style><svg viewBox="0 0 30 37" id="icon-clock" xmlns="http://www.w3.org/2000/svg"><path d="M3.74 12.364l-1.5-1.492a2.07 2.07 0 010-2.938 2.104 2.104 0 012.957 0L6.8 9.526a14.696 14.696 0 015.574-2.341V5.119h-1.395a.695.695 0 01-.697-.693V2.625c0-1.146.938-2.078 2.091-2.078h5.578c1.154 0 2.092.932 2.092 2.078v1.8a.695.695 0 01-.697.694H17.95v2.066a14.695 14.695 0 015.574 2.341l1.603-1.592a2.104 2.104 0 012.958 0 2.07 2.07 0 010 2.938l-1.501 1.492a14.471 14.471 0 013.22 9.101c0 8.02-6.57 14.546-14.643 14.546S.521 29.486.521 21.465c0-3.32 1.139-6.527 3.22-9.101zm.471-3.45a.701.701 0 00-.986 0 .69.69 0 000 .979l1.44 1.431c.326-.331.666-.647 1.02-.946L4.211 8.914zM18.65 2.625a.696.696 0 00-.698-.693h-5.578a.696.696 0 00-.697.693v1.108h6.973V2.625zm-4.881 2.494v1.866a15.097 15.097 0 012.789 0V5.119h-2.789zM27.1 8.914a.701.701 0 00-.986 0l-1.474 1.464c.354.3.694.615 1.019.946l1.44-1.431a.69.69 0 000-.98zM15.162 34.626c7.305 0 13.248-5.904 13.248-13.16 0-3.202-1.17-6.286-3.294-8.686a13.281 13.281 0 00-9.954-4.475 13.283 13.283 0 00-9.954 4.475 13.095 13.095 0 00-3.293 8.685c0 7.257 5.943 13.16 13.247 13.16z"/><path d="M15.162 23.543a2.087 2.087 0 01-2.092-2.078c0-.903.583-1.673 1.395-1.959V14.54c0-.383.312-.693.697-.693.385 0 .697.31.697.693v4.967a2.082 2.082 0 011.395 1.96 2.087 2.087 0 01-2.092 2.077zm0-2.77a.696.696 0 00-.697.692c0 .382.313.693.697.693.385 0 .697-.31.697-.693a.696.696 0 00-.697-.692z"/><path d="M7.735 14.158a.55.55 0 01.034-.038l.04-.037a10.51 10.51 0 014.395-2.585.692.692 0 11.395 1.329 9.105 9.105 0 00-3.33 1.804l.47.467a.69.69 0 010 .98.698.698 0 01-.986 0l-.471-.468a8.89 8.89 0 00-2.157 5.163h.67c.386 0 .698.31.698.692a.695.695 0 01-.698.693h-.67a8.889 8.889 0 002.157 5.163l.471-.469a.701.701 0 01.986 0 .69.69 0 010 .98l-.471.468a9.012 9.012 0 005.197 2.143v-.666c0-.383.312-.693.697-.693.385 0 .697.31.697.693v.666a9.01 9.01 0 005.197-2.143l-.47-.468a.69.69 0 010-.98.7.7 0 01.985 0l.472.469a8.89 8.89 0 002.157-5.163h-.671a.695.695 0 01-.697-.693c0-.382.312-.692.697-.692h.67a8.89 8.89 0 00-2.156-5.163l-.472.468a.697.697 0 01-.986 0 .69.69 0 010-.98l.47-.467a9.1 9.1 0 00-3.33-1.804.692.692 0 11.395-1.329 10.508 10.508 0 014.435 2.622l.034.037a10.284 10.284 0 013.032 7.308c0 2.755-1.077 5.347-3.031 7.308a.541.541 0 01-.035.037c-.011.012-.024.023-.037.034a10.422 10.422 0 01-7.356 3.011 10.421 10.421 0 01-7.356-3.01l-.037-.035-.034-.037a10.284 10.284 0 01-3.031-7.308c0-2.754 1.076-5.347 3.03-7.307z"/><path d="M15.162 12.46a.695.695 0 01-.697-.692c0-.382.312-.693.697-.693.385 0 .697.31.697.693a.695.695 0 01-.697.693z"/></svg><svg viewBox="0 0 17 17" id="icon-close" xmlns="http://www.w3.org/2000/svg"><path fill-rule="evenodd" clip-rule="evenodd" d="M.147.854A.5.5 0 11.854.146l7.424 7.425L15.703.146a.5.5 0 11.707.708L8.985 8.278l7.425 7.425a.5.5 0 01-.707.707L8.278 8.985.854 16.41a.5.5 0 11-.708-.707l7.425-7.425L.147.854z"/></svg><svg viewBox="0 0 31 27" id="icon-detective" xmlns="http://www.w3.org/2000/svg"><path d="M15.623 8.217a.593.593 0 00-.59.596c0 .33.264.596.59.596.325 0 .59-.267.59-.596a.593.593 0 00-.59-.596z"/><path d="M28.955 11.794H26.66C25.45 8.302 23.694 2.18 20.513.448c-1.59-.866-3.094-.261-3.66.967-.24.522-.72.796-1.23.796-.517 0-.993-.28-1.231-.796C13.847.23 12.379-.43 10.844.322 7.612 1.908 5.805 8.276 4.586 11.794H2.29c-.977 0-1.77.8-1.77 1.788 0 .986.794 1.789 1.77 1.789h26.665c.978 0 1.77-.8 1.77-1.789 0-.986-.794-1.788-1.77-1.788zM6.658 9.409h6.605c.326 0 .59-.267.59-.596a.593.593 0 00-.59-.596H7.071c1.778-4.964 3.44-6.406 4.288-6.823.926-.454 1.689-.074 1.963.524a2.513 2.513 0 002.3 1.486c.976 0 1.87-.549 2.301-1.486.283-.615 1.05-.955 2.03-.42.854.464 2.51 1.954 4.222 6.72h-6.192a.593.593 0 00-.59.595c0 .33.264.596.59.596h6.605c.298.87.608 1.766.822 2.385H5.836c.213-.617.523-1.512.822-2.385zm22.297 4.77H2.29a.594.594 0 01-.59-.597c0-.329.264-.596.59-.596h26.665c.326 0 .59.268.59.596a.593.593 0 01-.59.596zM14.443 17.755H5.004a.593.593 0 00-.59.596v2.385c0 2.958 2.382 5.365 5.31 5.365a5.3 5.3 0 004.962-3.456 2.242 2.242 0 011.873 0 5.3 5.3 0 004.963 3.456c2.928 0 5.31-2.407 5.31-5.365V18.35a.593.593 0 00-.59-.596h-9.44a.593.593 0 00-.59.596v.596h-1.18v-.596a.593.593 0 00-.59-.596zm-4.72 7.154c-2.277 0-4.13-1.872-4.13-4.173v-1.789h8.26v1.789c0 2.307-1.843 4.173-4.13 4.173zm7.67-5.962h8.259v1.789c0 2.3-1.853 4.173-4.13 4.173-2.293 0-4.13-1.872-4.13-4.173v-1.789zm-1.18 1.193v.596c0 .19.01.38.03.569a3.418 3.418 0 00-1.24 0c.019-.189.03-.379.03-.57v-.595h1.18z"/><path d="M9.723 22.524c-.976 0-1.77-.802-1.77-1.788a.593.593 0 00-.59-.596.593.593 0 00-.59.596c0 1.643 1.323 2.98 2.95 2.98.325 0 .59-.267.59-.596a.593.593 0 00-.59-.596zM21.523 23.716c1.626 0 2.95-1.337 2.95-2.98a.593.593 0 00-.59-.596.593.593 0 00-.59.596c0 .986-.794 1.788-1.77 1.788a.593.593 0 00-.59.596c0 .33.264.596.59.596z"/></svg><svg viewBox="0 0 26 19" fill="none" id="icon-email" xmlns="http://www.w3.org/2000/svg"><path d="M22.24 0H3.099C1.389 0 0 1.345 0 3v12.667c0 1.655 1.39 3 3.098 3h19.137c1.71 0 3.098-1.345 3.098-3V3.005C25.34 1.35 23.95 0 22.241 0zm1.683 15.667c0 .899-.754 1.63-1.682 1.63H3.098c-.928 0-1.683-.732-1.683-1.63V3.005c0-.899.755-1.63 1.683-1.63h19.137c.928 0 1.683.731 1.683 1.63v12.662h.005z" fill="#00B2FF"/><path d="M15.977 9.176l6.195-5.38a.673.673 0 00.053-.97.728.728 0 00-1.001-.05l-8.544 7.425-1.667-1.441c-.005-.005-.01-.01-.01-.015a1.043 1.043 0 00-.116-.097L4.104 2.771a.723.723 0 00-1 .056.67.67 0 00.057.97L9.43 9.221 3.187 14.88a.673.673 0 00-.031.969.722.722 0 001.001.036l6.337-5.74 1.72 1.486a.72.72 0 00.943-.005l1.766-1.532 6.3 5.795a.716.716 0 00.488.188.718.718 0 00.514-.213.672.672 0 00-.026-.97l-6.222-5.719z" fill="#00B2FF"/></svg><svg viewBox="0 0 27 27" id="icon-fb" xmlns="http://www.w3.org/2000/svg"><path fill-rule="evenodd" clip-rule="evenodd" d="M27 13.5C27 6.045 20.956 0 13.5 0S0 6.045 0 13.5C0 20.956 6.044 27 13.5 27S27 20.956 27 13.5zM16.884 9.294h-1.74c-.469 0-.798.397-.798.891v.775h2.485l-.402 2.517h-2.083v6.747h-2.543v-6.747h-1.688V10.96h1.688V9.677h.004c.045-1.463.553-2.856 3.031-2.944v-.01h2.046v2.571z"/></svg><svg viewBox="0 0 32 33" id="icon-hired" xmlns="http://www.w3.org/2000/svg"><path d="M28.364 26.192c.339-.477.54-1.061.54-1.694v-3.776a.623.623 0 00-.618-.629h-2.76c-1.275 0-2.313 1.057-2.313 2.355v2.05c0 .632.2 1.217.54 1.693-.423.07-.829.207-1.208.409a5.239 5.239 0 00-3.878-2.353l-.019-.005c.578-.657.93-1.523.93-2.472v-5.133a.623.623 0 00-.617-.629h-3.75c-1.612 0-2.923 1.335-2.923 2.975v2.787c0 .948.352 1.815.93 2.472l-.019.005A5.238 5.238 0 009.321 26.6a3.932 3.932 0 00-1.207-.409 2.915 2.915 0 00.539-1.692v-3.777a.623.623 0 00-.618-.629H5.276c-1.275 0-2.313 1.057-2.313 2.355v2.05c0 .633.2 1.217.54 1.694-1.912.318-3.375 2.01-3.375 4.044v1.862c0 .347.276.628.617.628h30.376a.623.623 0 00.617-.628v-1.862c0-2.034-1.463-3.726-3.374-4.044zM4.198 22.448a1.09 1.09 0 011.078-1.098h2.142v.766c0 .375-.3.68-.668.68H4.198v-.348zm0 1.605H6.75c.235 0 .46-.044.668-.123v.569c0 .903-.722 1.639-1.61 1.639-.888 0-1.61-.736-1.61-1.64v-.445zm2.008 3.342l-.398.405-.398-.405h.796zm2.23 2.172v1.902H1.362v-1.233c0-1.41 1.014-2.582 2.338-2.803l1.67 1.7a.612.612 0 00.873 0l1.671-1.701c.296.049.58.146.844.288a5.403 5.403 0 00-.324 1.847zm7.497-5.344c-1.329 0-2.41-1.1-2.41-2.453v-.831h3.69c.41 0 .794-.107 1.13-.293v1.124c0 1.352-1.08 2.453-2.41 2.453zm1.076 1.257l-1.076 1.096-1.076-1.096h2.152zm-3.486-6.497c0-.947.757-1.718 1.688-1.718h3.132v1.266c0 .635-.507 1.151-1.13 1.151h-3.69v-.7zm8.673 12.486H9.67v-1.257h4.02c.34 0 .617-.281.617-.628a.623.623 0 00-.617-.629H9.715c.265-1.786 1.67-3.196 3.433-3.437l2.349 2.39a.61.61 0 00.873 0l2.349-2.39c1.96.268 3.477 1.981 3.477 4.05v1.901zm2.252-9.02a1.09 1.09 0 011.079-1.099h2.142v.766c0 .375-.3.68-.669.68h-2.552v-.348zm0 1.604H27c.235 0 .46-.044.669-.123v.569c0 .903-.723 1.639-1.61 1.639-.889 0-1.61-.736-1.61-1.64v-.445zm2.008 3.342l-.398.405-.398-.405h.796zm-3.025 4.074v-1.902c0-.65-.114-1.271-.324-1.848.265-.142.549-.238.844-.287l1.67 1.701a.612.612 0 00.874 0l1.67-1.7c1.325.22 2.339 1.393 2.339 2.803v1.233H23.43zM18.976 4.653a.61.61 0 00-.873 0l-3.03 3.085-1.31-1.334a.61.61 0 00-.872 0 .637.637 0 000 .89l1.746 1.777a.612.612 0 00.873 0l3.466-3.529a.637.637 0 000-.889z"/><path d="M18.459 1.092a.613.613 0 00-.816.318.633.633 0 00.313.83c1.79.813 2.947 2.627 2.947 4.622 0 2.79-2.229 5.058-4.969 5.058s-4.968-2.269-4.968-5.058c0-1.985 1.148-3.795 2.926-4.612a.633.633 0 00.308-.832.613.613 0 00-.816-.314c-2.22 1.02-3.653 3.28-3.653 5.758 0 3.482 2.783 6.315 6.203 6.315 3.421 0 6.204-2.833 6.204-6.315 0-2.49-1.444-4.755-3.68-5.77z"/><path d="M15.955.547h-.022a.623.623 0 00-.617.628c0 .348.276.629.617.629h.02c.34 0 .615-.28.617-.626a.623.623 0 00-.615-.631zM16.37 29.14a.616.616 0 00-.437-.185.616.616 0 00-.436.184.64.64 0 000 .889.617.617 0 00.436.184.616.616 0 00.437-.184.639.639 0 000-.889z"/></svg><svg viewBox="0 0 38 38" fill="none" id="icon-logo" xmlns="http://www.w3.org/2000/svg"><path d="M23.433 10.133c.825 0 1.522.532 1.784 1.267h6.566a1.897 1.897 0 011.784-1.267c1.047 0 1.9.853 1.9 1.9 0 1.048-.853 1.9-1.9 1.9a1.897 1.897 0 01-1.784-1.267h-6.567a1.897 1.897 0 01-1.783 1.267c-1.048 0-1.9-.852-1.9-1.9 0-1.047.853-1.9 1.9-1.9zm10.134 2.534a.634.634 0 10-.002-1.268.634.634 0 00.002 1.268zm-10.134 0a.634.634 0 10-.001-1.269.634.634 0 00.002 1.268z" fill="#00B2FF"/><path d="M18.367 14.05v-3.917a.63.63 0 01.185-.448l2.534-2.533a.632.632 0 01.447-.185h2.017A1.897 1.897 0 0125.333 5.7c1.048 0 1.9.852 1.9 1.9 0 1.047-.852 1.9-1.9 1.9a1.897 1.897 0 01-1.783-1.267h-1.754l-2.163 2.162v3.655a1.897 1.897 0 011.267 1.783c0 1.048-.852 1.9-1.9 1.9-1.047 0-1.9-.852-1.9-1.9 0-.825.531-1.521 1.267-1.783zm6.966-5.817a.634.634 0 100-1.268.634.634 0 000 1.268zM19 16.466A.634.634 0 1019 15.198.634.634 0 0019 16.466zM6.967 16.466c.292 0 .566.072.814.191l1.086-1.086V9.5a.63.63 0 01.185-.448l6.339-6.338A1.87 1.87 0 0115.2 1.9c0-1.048.852-1.9 1.9-1.9 1.047 0 1.9.852 1.9 1.9 0 1.047-.852 1.9-1.9 1.9-.293 0-.566-.072-.814-.19l-6.153 6.152v6.071a.63.63 0 01-.185.448l-1.272 1.271c.12.248.19.522.19.814 0 1.048-.852 1.9-1.9 1.9-1.047 0-1.9-.852-1.9-1.9 0-1.047.853-1.9 1.9-1.9zM17.1 2.533a.634.634 0 10-.001-1.268.634.634 0 00.001 1.268zM6.967 19a.634.634 0 10-.002-1.268A.634.634 0 006.967 19zM1.267 8.983v-2.65a.63.63 0 01.186-.448l4.433-4.433a.632.632 0 01.448-.185h3.283A1.897 1.897 0 0111.4 0c1.048 0 1.9.852 1.9 1.9 0 1.047-.852 1.9-1.9 1.9a1.897 1.897 0 01-1.783-1.267H6.596L2.534 6.595v2.388A1.897 1.897 0 013.8 10.767c0 1.047-.852 1.9-1.9 1.9-1.047 0-1.9-.853-1.9-1.9 0-.825.532-1.522 1.267-1.784zM11.4 2.533a.634.634 0 100-1.268.634.634 0 000 1.268zM1.9 11.4a.634.634 0 100-1.268.634.634 0 000 1.268zM10.133 34.317v-9.1a1.898 1.898 0 01-1.266-1.784c0-1.048.852-1.9 1.9-1.9.825 0 1.521.531 1.783 1.267h6.567a1.897 1.897 0 011.783-1.267c.825 0 1.522.531 1.784 1.267h3.654l2.353-2.353a1.87 1.87 0 01-.19-.814c0-1.047.852-1.9 1.9-1.9 1.047 0 1.9.852 1.9 1.9 0 1.047-.853 1.9-1.9 1.9-.293 0-.567-.072-.814-.19l-2.539 2.538a.632.632 0 01-.448.185h-3.916a1.898 1.898 0 01-1.784 1.267 1.898 1.898 0 01-1.783-1.267H12.55a1.898 1.898 0 01-1.15 1.15v9.1a1.897 1.897 0 011.266 1.784c0 1.047-.852 1.9-1.9 1.9-1.047 0-1.9-.852-1.9-1.9 0-.825.532-1.521 1.267-1.783zM30.4 20.267a.634.634 0 100-1.268.634.634 0 000 1.267zm-9.5 3.8a.634.634 0 10-.001-1.269.634.634 0 00.001 1.268zM10.767 36.732a.634.634 0 10-.001-1.268.634.634 0 00.001 1.268zm0-12.667a.634.634 0 10-.001-1.268.634.634 0 00.001 1.268z" fill="#00B2FF"/><path d="M13.3 12.783v-2.016a.63.63 0 01.185-.448l7.605-7.605a1.868 1.868 0 01-.19-.814c0-1.048.852-1.9 1.9-1.9.824 0 1.521.531 1.783 1.267h2.65c.35 0 .633.283.633.633v1.638L30.22 5.89c.248-.12.521-.191.814-.191 1.048 0 1.9.852 1.9 1.9 0 1.047-.852 1.9-1.9 1.9-1.047 0-1.9-.853-1.9-1.9 0-.293.072-.566.19-.814l-2.538-2.538A.63.63 0 0126.6 3.8V2.533h-2.017A1.897 1.897 0 0122.8 3.8a1.87 1.87 0 01-.814-.19l-7.42 7.419v1.754a1.897 1.897 0 011.267 1.783c0 1.048-.852 1.9-1.9 1.9-1.047 0-1.9-.852-1.9-1.9 0-.824.532-1.52 1.267-1.783zm17.733-4.55a.634.634 0 10-.001-1.268.634.634 0 00.001 1.268zm-8.233-5.7a.634.634 0 10-.002-1.268.634.634 0 00.002 1.268zM13.933 15.2a.634.634 0 10-.001-1.268.634.634 0 00.001 1.268z" fill="#00B2FF"/><path d="M15.2 17.733c.825 0 1.521.531 1.784 1.267h7.454l3.614-3.615a.632.632 0 01.448-.185h6.705l1.528-1.53V8.496L31.847 3.61a1.87 1.87 0 01-.814.19c-1.047 0-1.9-.852-1.9-1.899 0-1.048.853-1.9 1.9-1.9 1.048 0 1.9.852 1.9 1.9 0 .293-.071.566-.19.814l5.071 5.071a.63.63 0 01.186.448v5.7a.63.63 0 01-.186.448l-1.9 1.9a.631.631 0 01-.447.185h-6.705l-3.614 3.615a.632.632 0 01-.448.185h-7.716a1.897 1.897 0 01-1.784 1.267c-1.047 0-1.9-.853-1.9-1.9s.852-1.9 1.9-1.9zM31.033 1.267a.634.634 0 10.002 1.268.634.634 0 00-.002-1.268zm-15.833 19a.634.634 0 10-.001-1.268.634.634 0 00.001 1.267zM1.9 15.2c.293 0 .567.071.814.19l2.353-2.352V9.383A1.897 1.897 0 013.801 7.6c0-1.048.852-1.9 1.9-1.9 1.047 0 1.9.852 1.9 1.9 0 .825-.532 1.521-1.267 1.783V13.3a.63.63 0 01-.186.448L3.61 16.286c.119.248.19.521.19.814 0 .824-.53 1.521-1.266 1.783v.488l4.881 4.88a.63.63 0 01.186.449v.75a1.897 1.897 0 011.266 1.783c0 .825-.531 1.521-1.266 1.783v1.5A1.897 1.897 0 018.867 32.3c0 1.048-.852 1.9-1.9 1.9-1.047 0-1.9-.852-1.9-1.9 0-.824.532-1.521 1.267-1.783v-1.5a1.897 1.897 0 01-1.267-1.784c0-.825.532-1.521 1.267-1.784v-.487L1.453 20.08a.63.63 0 01-.186-.448v-.75A1.897 1.897 0 01.001 17.1c0-1.048.852-1.9 1.9-1.9zm3.8-6.967a.634.634 0 100-1.268.634.634 0 000 1.268zm1.267 24.7a.634.634 0 10-.001-1.268.634.634 0 00.001 1.268zm0-5.067a.634.634 0 10-.001-1.268.634.634 0 00.001 1.268zM1.901 17.733a.634.634 0 10-.002-1.268.634.634 0 00.002 1.268z" fill="#00B2FF"/></svg><svg viewBox="0 0 27 26" id="icon-ok" xmlns="http://www.w3.org/2000/svg"><path d="M13.851 10.957c1.016 0 1.806-.836 1.787-1.746.019-.91-.752-1.764-1.768-1.764-.978 0-1.787.78-1.787 1.746 0 .965.79 1.764 1.768 1.764z" fill="#CDCDCD"/><path d="M13.701 0C6.441 0 .535 5.831.535 13c0 7.187 5.906 13 13.166 13 7.279 0 13.166-5.831 13.166-13C26.885 5.83 20.98 0 13.7 0zm.188 4.921c2.37 0 4.326 1.932 4.307 4.29 0 2.377-1.975 4.29-4.382 4.253-2.37-.037-4.27-1.95-4.27-4.271 0-2.359 1.938-4.272 4.345-4.272zm4.834 10.029c0 .037-.019.056-.019.093a1.213 1.213 0 01-.564.873c-.207.13-.433.26-.659.371a8.55 8.55 0 01-1.786.65c-.075.019-.075.019-.02.074l1.035 1.022 1.317 1.3c.62.613.451 1.634-.339 2.006-.131.074-.282.092-.432.13h-.245c-.019 0-.037 0-.037-.02-.301-.036-.546-.185-.771-.39l-2.276-2.246c-.057-.056-.057-.056-.113 0l-2.295 2.265c-.131.13-.263.223-.432.298-.113.055-.245.074-.358.092h-.244c-.038 0-.057-.018-.094-.018-.508-.093-.847-.372-.997-.854-.15-.483-.038-.91.32-1.263l.94-.929 1.392-1.374c.056-.056.056-.056-.019-.074-.019 0-.056-.019-.075-.019a8.182 8.182 0 01-2.351-.984c-.433-.279-.64-.687-.583-1.189.094-.928 1.147-1.43 1.937-.928.15.092.282.167.451.241a5.413 5.413 0 002.746.557c.47-.018.94-.111 1.411-.26.451-.148.846-.353 1.26-.575.677-.39 1.561-.075 1.825.65.037.11.056.204.075.315v.186z"/></svg><svg viewBox="0 0 25 24" fill="none" id="icon-phone" xmlns="http://www.w3.org/2000/svg"><path d="M19.645 14.867c-.492-.512-1.086-.785-1.715-.785-.624 0-1.222.268-1.735.78l-1.603 1.596c-.132-.071-.264-.137-.39-.203a6.451 6.451 0 01-.503-.268c-1.501-.953-2.866-2.194-4.174-3.8-.635-.8-1.06-1.473-1.37-2.157.416-.38.801-.775 1.177-1.155.142-.142.284-.289.426-.43 1.065-1.064 1.065-2.442 0-3.506L8.373 3.556c-.157-.157-.32-.319-.472-.481a23.938 23.938 0 00-.953-.942c-.492-.486-1.08-.745-1.7-.745-.619 0-1.217.259-1.724.745l-.01.01L1.788 3.88A3.704 3.704 0 00.688 6.236c-.122 1.479.314 2.857.65 3.758.821 2.214 2.049 4.265 3.88 6.464 2.222 2.649 4.895 4.74 7.949 6.215 1.167.552 2.724 1.205 4.464 1.317.106.005.218.01.32.01 1.171 0 2.155-.42 2.926-1.256.005-.01.016-.015.02-.026.264-.319.569-.607.888-.916.218-.208.442-.426.66-.654.502-.522.766-1.13.766-1.752 0-.629-.269-1.231-.781-1.738l-2.785-2.79zm1.816 5.334c-.005 0-.005.005 0 0-.198.213-.401.405-.62.618-.329.314-.664.643-.978 1.013-.512.547-1.116.805-1.907.805-.077 0-.158 0-.234-.005-1.507-.096-2.907-.684-3.957-1.185-2.87-1.388-5.392-3.358-7.487-5.855-1.73-2.082-2.886-4.007-3.652-6.074-.472-1.261-.645-2.244-.568-3.17.05-.593.279-1.085.7-1.505l1.73-1.728c.248-.233.512-.36.77-.36.32 0 .579.193.741.355l.015.016c.31.288.604.587.913.906.158.162.32.324.482.492l1.385 1.382c.538.537.538 1.034 0 1.57-.147.148-.29.295-.436.436-.426.436-.832.841-1.273 1.236-.01.01-.02.016-.026.026-.436.435-.355.86-.264 1.15l.016.045c.36.871.867 1.692 1.638 2.67l.005.005c1.4 1.722 2.877 3.064 4.505 4.092.208.132.42.239.624.34.182.091.355.177.502.268.02.01.04.026.06.036.173.086.336.126.503.126.421 0 .685-.263.771-.35l1.735-1.732c.172-.172.446-.38.766-.38.314 0 .573.198.73.37l.01.01 2.796 2.792c.522.516.522 1.048.005 1.585zM13.638 5.709a6.436 6.436 0 013.5 1.813 6.453 6.453 0 011.817 3.495.68.68 0 00.674.568c.04 0 .076-.005.117-.01a.685.685 0 00.563-.79 7.81 7.81 0 00-2.196-4.23 7.828 7.828 0 00-4.236-2.193.688.688 0 00-.792.557c-.066.37.178.73.553.79zM24.656 10.587a12.847 12.847 0 00-3.616-6.965A12.878 12.878 0 0014.065.01a.682.682 0 10-.224 1.348c2.364.4 4.52 1.52 6.235 3.226a11.47 11.47 0 013.231 6.226.68.68 0 00.675.567c.04 0 .076-.005.116-.01a.671.671 0 00.558-.78z" fill="#00B2FF"/></svg><svg viewBox="0 0 33 33" id="icon-price" xmlns="http://www.w3.org/2000/svg"><path d="M10.794 8.44a.633.633 0 00-.444-.184.633.633 0 00-.444.184.634.634 0 00-.184.444c0 .166.067.328.184.445.117.117.279.184.444.184a.633.633 0 00.629-.629.633.633 0 00-.184-.444z"/><path d="M32.611 3.175l-.777-.778.777-.777a.629.629 0 00-.89-.889l-.776.777L30.18.74a.629.629 0 00-.445-.185L19.098.551h-.002c-.84 0-1.63.327-2.224.92l-5.308 5.31a.629.629 0 00.889.889l5.308-5.31c.357-.356.83-.552 1.335-.552h.001l10.377.006.583.583-2.332 2.332a2.579 2.579 0 00-3.144.388 2.559 2.559 0 00-.754 1.821c0 .688.268 1.334.754 1.82a2.567 2.567 0 001.82.754c.66 0 1.32-.251 1.821-.753.85-.85.98-2.152.39-3.14l2.333-2.333.593.594-.006 10.365c0 .504-.197.977-.553 1.334L15.642 30.918c-.356.357-.83.553-1.335.553-.504 0-.978-.197-1.335-.553L2.425 20.369a1.876 1.876 0 01-.553-1.335c0-.504.197-.978.553-1.335L9.2 10.923a.629.629 0 00-.889-.889L1.536 16.81a3.125 3.125 0 00-.92 2.224c0 .84.326 1.63.92 2.224l10.548 10.549c.613.613 1.418.92 2.223.92.806 0 1.61-.307 2.224-.92l15.337-15.34c.593-.593.92-1.382.921-2.222l.006-10.625a.628.628 0 00-.184-.445zM27.333 7.87c-.249.249-.58.386-.931.386a1.32 1.32 0 010-2.635c.127 0 .254.018.377.054l-.726.726a.629.629 0 00.889.889l.723-.724c.13.448.02.952-.332 1.304z"/><path d="M27.463 13.202L20.14 5.877c-.97-.97-2.55-.97-3.52 0L5.03 17.469a2.473 2.473 0 00-.73 1.76c0 .665.26 1.29.73 1.76l7.324 7.326c.47.47 1.095.729 1.76.729.664 0 1.29-.259 1.76-.729l11.59-11.593c.47-.47.73-1.095.73-1.76s-.26-1.29-.73-1.76zm-.889 2.631l-11.59 11.593c-.233.233-.543.36-.871.36-.33 0-.639-.127-.871-.36L5.917 20.1a1.224 1.224 0 01-.36-.87c0-.33.127-.639.36-.872L17.508 6.766c.24-.24.556-.36.871-.36.315 0 .63.12.87.36l7.325 7.325c.233.233.361.542.361.871 0 .33-.128.639-.36.871z"/><path d="M21.11 13.122a.629.629 0 00-.89-.89l-.361.363c-.966-.597-2.206-.517-2.99.267a2.28 2.28 0 00-.658 1.747 2.644 2.644 0 00.784 1.74c.505.505.562 1.272.126 1.708-.437.436-1.203.38-1.709-.126-.505-.506-.562-1.272-.126-1.709a.629.629 0 00-.888-.889c-.784.784-.864 2.024-.267 2.99l-.43.43a.629.629 0 10.89.89l.429-.43a2.6 2.6 0 001.362.393c.6 0 1.186-.219 1.628-.66.926-.926.87-2.49-.126-3.486a1.39 1.39 0 01-.418-.911 1.039 1.039 0 01.292-.798c.436-.436 1.202-.38 1.708.126s.562 1.272.126 1.708a.629.629 0 00.889.89c.784-.785.864-2.025.267-2.991l.362-.362zM14.75 23.543l-3.229-3.229a.629.629 0 00-.889.89l3.229 3.228a.627.627 0 00.888 0 .629.629 0 000-.889zM9.799 18.592a.632.632 0 00-.889 0 .633.633 0 000 .89.632.632 0 001.073-.445.633.633 0 00-.184-.445z"/></svg><svg viewBox="0 0 27 26" id="icon-vk" xmlns="http://www.w3.org/2000/svg"><path d="M19.475 15.127c-1.109-1.024-1.188-1.024-.238-2.206 1.188-1.497 2.773-3.388 1.347-3.388H17.97c-.475 0-.554.316-.713.71-.633 1.496-1.9 3.466-2.376 3.15-.475-.314-.237-1.496-.237-3.387a.61.61 0 00-.159-.63c-.158-.158-.396-.315-.633-.315-.396-.079-.792-.158-1.188-.158-1.505 0-2.535.63-1.98.71 1.03.157.95 2.363.712 3.308-.396 1.655-1.98-1.26-2.693-2.757-.079-.394-.396-.63-.792-.63H5.852c-.317 0-.554.078-.554.315 0 .393 1.98 4.254 3.801 6.224 1.822 1.89 3.644 1.733 4.911 1.733a.607.607 0 00.396-.158.6.6 0 00.158-.394c0-1.26.476-1.89 1.347-1.024.95.945 1.188 1.576 2.376 1.576h2.138c.555 0 .713-.158.713-.394.08-.552-.871-1.576-1.663-2.285zM13.852.001c7.366.157 13.226 6.066 13.147 13.235-.079 7.17-6.178 12.842-13.543 12.763C6.01 25.92.07 20.17.07 13 .15 5.753 6.327-.077 13.852.002z"/></svg></svg>