<svg width="201" height="52" viewBox="0 0 201 52" fill="none" xmlns="http://www.w3.org/2000/svg">
<path d="M76.96 24.3247C76.96 24.0073 76.9315 23.7184 76.8745 23.458C76.8176 23.1976 76.6955 22.9575 76.5083 22.7378C76.3293 22.5181 76.0648 22.2983 75.7149 22.0786C75.3731 21.8589 74.9255 21.631 74.3721 21.395C73.7129 21.1183 73.0741 20.8254 72.4556 20.5161C71.8371 20.1987 71.2796 19.8325 70.7832 19.4175C70.2868 19.0024 69.8921 18.5142 69.5991 17.9526C69.3143 17.383 69.1719 16.7157 69.1719 15.9507C69.1719 15.202 69.3062 14.5225 69.5747 13.9121C69.8514 13.3018 70.242 12.7809 70.7466 12.3496C71.2511 11.9102 71.8412 11.5724 72.5166 11.3364C73.2002 11.1004 73.9611 10.9824 74.7993 10.9824C75.9386 10.9824 76.9233 11.2184 77.7534 11.6904C78.5916 12.1624 79.2386 12.8094 79.6943 13.6313C80.1582 14.4533 80.3901 15.3973 80.3901 16.4634H76.8257C76.8257 15.9588 76.7524 15.5153 76.606 15.1328C76.4676 14.7422 76.2438 14.437 75.9346 14.2173C75.6253 13.9976 75.2266 13.8877 74.7383 13.8877C74.2826 13.8877 73.9041 13.9813 73.603 14.1685C73.3101 14.3475 73.0903 14.5957 72.9439 14.9131C72.8055 15.2223 72.7363 15.5723 72.7363 15.9629C72.7363 16.2559 72.8055 16.5203 72.9439 16.7563C73.0903 16.9842 73.2897 17.1917 73.542 17.3789C73.7943 17.5579 74.0913 17.7329 74.4331 17.9038C74.783 18.0747 75.1655 18.2415 75.5806 18.4043C76.3862 18.7217 77.0983 19.0716 77.7168 19.4541C78.3353 19.8285 78.8521 20.2516 79.2671 20.7236C79.6821 21.1875 79.9955 21.7124 80.207 22.2983C80.4186 22.8843 80.5244 23.5516 80.5244 24.3003C80.5244 25.0409 80.3942 25.7163 80.1338 26.3267C79.8815 26.9289 79.5112 27.4497 79.023 27.8892C78.5347 28.3205 77.9447 28.6541 77.2529 28.8901C76.5693 29.1261 75.8044 29.2441 74.958 29.2441C74.1361 29.2441 73.3589 29.1302 72.6265 28.9023C71.8941 28.6663 71.2471 28.3123 70.6856 27.8403C70.1322 27.3602 69.6968 26.7539 69.3794 26.0215C69.062 25.2809 68.9033 24.4061 68.9033 23.397H72.48C72.48 23.9341 72.5329 24.3939 72.6387 24.7764C72.7445 25.1507 72.9072 25.4518 73.127 25.6797C73.3467 25.8994 73.6152 26.0662 73.9326 26.1802C74.2581 26.286 74.6284 26.3389 75.0435 26.3389C75.5155 26.3389 75.8898 26.2493 76.1665 26.0703C76.4513 25.8913 76.6548 25.6512 76.7769 25.3501C76.8989 25.049 76.96 24.7072 76.96 24.3247Z" fill="white"/>
<path d="M86.2129 18.5264V29H82.7827V15.792H86.0054L86.2129 18.5264ZM85.7246 21.9443L84.7847 21.9688C84.7684 21.041 84.8498 20.1865 85.0288 19.4053C85.2079 18.624 85.4764 17.9445 85.8345 17.3667C86.2007 16.7889 86.6605 16.3413 87.2139 16.0239C87.7673 15.7065 88.4142 15.5479 89.1548 15.5479C89.6349 15.5479 90.0785 15.6374 90.4854 15.8164C90.8923 15.9873 91.2463 16.2599 91.5474 16.6343C91.8485 17.0005 92.0804 17.4806 92.2432 18.0747C92.4059 18.6606 92.4873 19.3646 92.4873 20.1865V29H89.0693V20.6016C89.0693 20.0156 89.0124 19.568 88.8984 19.2588C88.7845 18.9414 88.6218 18.7217 88.4102 18.5996C88.1986 18.4694 87.9382 18.4043 87.6289 18.4043C87.3034 18.4043 87.0186 18.4938 86.7744 18.6729C86.5303 18.8519 86.3309 19.1042 86.1763 19.4297C86.0298 19.7471 85.9159 20.1214 85.8345 20.5527C85.7612 20.984 85.7246 21.4479 85.7246 21.9443ZM92.1577 21.6025L90.9248 21.7612C90.9085 20.8905 90.9858 20.0807 91.1567 19.332C91.3276 18.5752 91.5921 17.916 91.9502 17.3545C92.3083 16.7848 92.7559 16.3413 93.293 16.0239C93.8382 15.7065 94.4689 15.5479 95.1851 15.5479C95.7222 15.5479 96.2105 15.6374 96.6499 15.8164C97.0894 15.9954 97.4637 16.2843 97.773 16.6831C98.0903 17.0737 98.3304 17.5905 98.4932 18.2334C98.6641 18.8763 98.7495 19.6576 98.7495 20.5771V29H95.3193V20.5894C95.3193 19.9953 95.2624 19.5396 95.1484 19.2222C95.0345 18.9048 94.8718 18.6891 94.6602 18.5752C94.4486 18.4613 94.1963 18.4043 93.9033 18.4043C93.6104 18.4043 93.354 18.4857 93.1343 18.6484C92.9227 18.8112 92.7437 19.0391 92.5972 19.332C92.4507 19.6169 92.3408 19.9546 92.2676 20.3452C92.1943 20.7277 92.1577 21.1468 92.1577 21.6025Z" fill="white"/>
<path d="M107.148 25.9604V19.8569C107.148 19.4582 107.099 19.1408 107.001 18.9048C106.912 18.6688 106.774 18.4979 106.586 18.3921C106.407 18.2782 106.188 18.2212 105.927 18.2212C105.634 18.2212 105.39 18.2822 105.195 18.4043C105 18.5264 104.853 18.7013 104.755 18.9292C104.666 19.1571 104.621 19.4297 104.621 19.7471H101.191C101.191 19.1774 101.301 18.6403 101.521 18.1357C101.74 17.623 102.062 17.1755 102.485 16.793C102.916 16.4023 103.429 16.0972 104.023 15.8774C104.617 15.6577 105.284 15.5479 106.025 15.5479C106.904 15.5479 107.685 15.6984 108.369 15.9995C109.052 16.2925 109.593 16.7604 109.992 17.4033C110.391 18.0462 110.59 18.8804 110.59 19.9058V25.7896C110.59 26.5301 110.627 27.1323 110.7 27.5962C110.782 28.0601 110.9 28.4588 111.054 28.7925V29H107.612C107.457 28.6338 107.339 28.1781 107.258 27.6328C107.185 27.0794 107.148 26.522 107.148 25.9604ZM107.563 20.9312L107.575 22.9819H106.318C105.992 22.9819 105.708 23.0348 105.463 23.1406C105.227 23.2464 105.028 23.397 104.865 23.5923C104.702 23.7795 104.58 23.9992 104.499 24.2515C104.426 24.5037 104.389 24.7723 104.389 25.0571C104.389 25.3745 104.434 25.6431 104.523 25.8628C104.613 26.0825 104.747 26.2493 104.926 26.3633C105.105 26.4772 105.317 26.5342 105.561 26.5342C105.935 26.5342 106.261 26.4569 106.538 26.3022C106.814 26.1476 107.018 25.9604 107.148 25.7407C107.286 25.521 107.331 25.3175 107.282 25.1304L108.063 26.4609C107.966 26.762 107.832 27.0754 107.661 27.4009C107.498 27.7264 107.29 28.0275 107.038 28.3042C106.786 28.5809 106.473 28.8088 106.098 28.9878C105.732 29.1587 105.297 29.2441 104.792 29.2441C104.084 29.2441 103.437 29.0814 102.851 28.7559C102.265 28.4303 101.801 27.9746 101.459 27.3887C101.126 26.8027 100.959 26.1069 100.959 25.3013C100.959 24.634 101.065 24.0317 101.276 23.4946C101.496 22.9494 101.822 22.4896 102.253 22.1152C102.684 21.7327 103.229 21.4398 103.889 21.2363C104.548 21.0329 105.321 20.9312 106.208 20.9312H107.563Z" fill="white"/>
<path d="M116.535 18.7339V29H113.117V15.792H116.34L116.535 18.7339ZM119.648 15.6943L119.599 19.1001C119.445 19.0675 119.257 19.0431 119.038 19.0269C118.826 19.0106 118.639 19.0024 118.476 19.0024C118.094 19.0024 117.768 19.0635 117.5 19.1855C117.231 19.2995 117.007 19.4744 116.828 19.7104C116.657 19.9383 116.527 20.2231 116.438 20.5649C116.348 20.9067 116.295 21.2933 116.279 21.7246L115.632 21.4805C115.632 20.6178 115.697 19.8285 115.827 19.1123C115.966 18.388 116.169 17.7614 116.438 17.2324C116.706 16.6953 117.028 16.2803 117.402 15.9873C117.784 15.6943 118.216 15.5479 118.696 15.5479C118.859 15.5479 119.029 15.5641 119.209 15.5967C119.396 15.6211 119.542 15.6536 119.648 15.6943Z" fill="white"/>
<path d="M127.766 15.792V18.3677H121.027V15.792H127.766ZM122.578 12.5327H125.983V24.9717C125.983 25.3379 126.02 25.6187 126.093 25.814C126.167 26.0093 126.276 26.1476 126.423 26.229C126.577 26.3022 126.781 26.3389 127.033 26.3389C127.204 26.3389 127.363 26.3307 127.509 26.3145C127.656 26.29 127.766 26.2656 127.839 26.2412V28.9146C127.57 29.0203 127.285 29.1017 126.984 29.1587C126.691 29.2157 126.341 29.2441 125.935 29.2441C125.251 29.2441 124.657 29.1139 124.152 28.8535C123.656 28.5931 123.269 28.1781 122.993 27.6084C122.716 27.0306 122.578 26.2738 122.578 25.3379V12.5327Z" fill="white"/>
<path d="M140.241 29H137.104L137.128 26.0459H140.241C141.104 26.0459 141.775 25.8913 142.255 25.582C142.736 25.2728 143.073 24.7845 143.269 24.1172C143.472 23.4499 143.574 22.575 143.574 21.4927V18.7217C143.574 17.8997 143.521 17.2039 143.415 16.6343C143.309 16.0565 143.13 15.5926 142.878 15.2427C142.626 14.8846 142.288 14.6201 141.865 14.4492C141.442 14.2783 140.917 14.1929 140.29 14.1929H137.043V11.2266H140.29C141.315 11.2266 142.247 11.3934 143.085 11.7271C143.924 12.0607 144.644 12.549 145.246 13.1919C145.848 13.8267 146.312 14.612 146.638 15.5479C146.963 16.4837 147.126 17.5498 147.126 18.7461V21.4927C147.126 22.6971 146.963 23.7632 146.638 24.6909C146.312 25.6187 145.848 26.404 145.246 27.0469C144.652 27.6816 143.932 28.1659 143.085 28.4995C142.239 28.8332 141.291 29 140.241 29ZM139.179 11.2266V29H135.603V11.2266H139.179Z" fill="white"/>
<path d="M154.89 29.2441C153.986 29.2441 153.185 29.1058 152.485 28.8291C151.793 28.5524 151.207 28.1536 150.727 27.6328C150.247 27.1038 149.881 26.465 149.628 25.7163C149.376 24.9676 149.25 24.1131 149.25 23.1528V22.0664C149.25 20.9922 149.372 20.0522 149.616 19.2466C149.86 18.4328 150.206 17.7492 150.654 17.1958C151.101 16.6424 151.651 16.2314 152.302 15.9629C152.961 15.6862 153.706 15.5479 154.536 15.5479C155.366 15.5479 156.094 15.6862 156.721 15.9629C157.355 16.2314 157.88 16.6383 158.295 17.1836C158.71 17.7207 159.024 18.388 159.235 19.1855C159.447 19.9831 159.553 20.9108 159.553 21.9688V23.5312H150.703V21.1265H156.196V20.8213C156.196 20.2842 156.139 19.8366 156.025 19.4785C155.911 19.1123 155.732 18.8397 155.488 18.6606C155.244 18.4816 154.918 18.3921 154.511 18.3921C154.169 18.3921 153.881 18.4613 153.645 18.5996C153.409 18.738 153.221 18.9536 153.083 19.2466C152.945 19.5396 152.843 19.922 152.778 20.394C152.713 20.8579 152.68 21.4154 152.68 22.0664V23.1528C152.68 23.7632 152.733 24.2759 152.839 24.6909C152.945 25.0978 153.099 25.4315 153.303 25.6919C153.514 25.9442 153.771 26.1273 154.072 26.2412C154.373 26.347 154.723 26.3999 155.122 26.3999C155.724 26.3999 156.265 26.2941 156.745 26.0825C157.233 25.8628 157.648 25.5658 157.99 25.1914L159.357 27.2666C159.121 27.5758 158.796 27.8851 158.381 28.1943C157.966 28.5036 157.469 28.7559 156.892 28.9512C156.314 29.1465 155.646 29.2441 154.89 29.2441Z" fill="white"/>
<path d="M165.253 26.3633L167.377 15.792H170.942L167.316 29H165.18L165.253 26.3633ZM163.996 15.792L166.157 26.3755L166.193 29H164.045L160.419 15.792H163.996Z" fill="white"/>
<path d="M176.179 15.792V29H172.749V15.792H176.179ZM172.59 12.374C172.59 11.8451 172.757 11.4097 173.09 11.0679C173.432 10.7179 173.888 10.543 174.458 10.543C175.035 10.543 175.491 10.7179 175.825 11.0679C176.158 11.4097 176.325 11.8451 176.325 12.374C176.325 12.8949 176.154 13.3302 175.812 13.6802C175.479 14.022 175.031 14.1929 174.47 14.1929C173.892 14.1929 173.432 14.022 173.09 13.6802C172.757 13.3302 172.59 12.8949 172.59 12.374Z" fill="white"/>
<path d="M183.662 26.3999C183.979 26.3999 184.252 26.3348 184.479 26.2046C184.715 26.0744 184.895 25.8628 185.017 25.5698C185.139 25.2769 185.204 24.8984 185.212 24.4346H188.422C188.422 25.4274 188.211 26.286 187.788 27.0103C187.373 27.7264 186.811 28.2798 186.103 28.6704C185.403 29.0529 184.61 29.2441 183.723 29.2441C182.836 29.2441 182.062 29.1017 181.403 28.8169C180.744 28.5321 180.199 28.117 179.768 27.5718C179.344 27.0265 179.023 26.3633 178.803 25.582C178.592 24.7926 178.486 23.8893 178.486 22.8721V21.9077C178.486 20.9067 178.592 20.0116 178.803 19.2222C179.023 18.4328 179.344 17.7655 179.768 17.2202C180.199 16.675 180.74 16.2599 181.391 15.9751C182.05 15.6903 182.823 15.5479 183.71 15.5479C184.663 15.5479 185.489 15.7472 186.188 16.146C186.888 16.5366 187.434 17.1144 187.824 17.8794C188.223 18.6444 188.422 19.5884 188.422 20.7114H185.212C185.204 20.2069 185.143 19.7878 185.029 19.4541C184.923 19.1123 184.756 18.8519 184.528 18.6729C184.309 18.4857 184.016 18.3921 183.649 18.3921C183.267 18.3921 182.958 18.4735 182.722 18.6362C182.494 18.7909 182.319 19.0187 182.197 19.3198C182.083 19.6128 182.006 19.979 181.965 20.4185C181.924 20.8579 181.904 21.3543 181.904 21.9077V22.8721C181.904 23.4661 181.92 23.9829 181.953 24.4224C181.993 24.8537 182.071 25.2199 182.185 25.521C182.307 25.814 182.482 26.0337 182.709 26.1802C182.945 26.3267 183.263 26.3999 183.662 26.3999Z" fill="white"/>
<path d="M195.71 29.2441C194.807 29.2441 194.005 29.1058 193.305 28.8291C192.613 28.5524 192.028 28.1536 191.547 27.6328C191.067 27.1038 190.701 26.465 190.449 25.7163C190.196 24.9676 190.07 24.1131 190.07 23.1528V22.0664C190.07 20.9922 190.192 20.0522 190.437 19.2466C190.681 18.4328 191.027 17.7492 191.474 17.1958C191.922 16.6424 192.471 16.2314 193.122 15.9629C193.781 15.6862 194.526 15.5479 195.356 15.5479C196.186 15.5479 196.914 15.6862 197.541 15.9629C198.176 16.2314 198.701 16.6383 199.116 17.1836C199.531 17.7207 199.844 18.388 200.056 19.1855C200.267 19.9831 200.373 20.9108 200.373 21.9688V23.5312H191.523V21.1265H197.016V20.8213C197.016 20.2842 196.959 19.8366 196.845 19.4785C196.731 19.1123 196.552 18.8397 196.308 18.6606C196.064 18.4816 195.738 18.3921 195.332 18.3921C194.99 18.3921 194.701 18.4613 194.465 18.5996C194.229 18.738 194.042 18.9536 193.903 19.2466C193.765 19.5396 193.663 19.922 193.598 20.394C193.533 20.8579 193.5 21.4154 193.5 22.0664V23.1528C193.5 23.7632 193.553 24.2759 193.659 24.6909C193.765 25.0978 193.92 25.4315 194.123 25.6919C194.335 25.9442 194.591 26.1273 194.892 26.2412C195.193 26.347 195.543 26.3999 195.942 26.3999C196.544 26.3999 197.085 26.2941 197.565 26.0825C198.054 25.8628 198.469 25.5658 198.811 25.1914L200.178 27.2666C199.942 27.5758 199.616 27.8851 199.201 28.1943C198.786 28.5036 198.29 28.7559 197.712 28.9512C197.134 29.1465 196.467 29.2441 195.71 29.2441Z" fill="white"/>
<path d="M70.5664 46.3086L72.2891 40.6602H73.8008L71.2578 47.9668C71.1992 48.123 71.1231 48.293 71.0293 48.4766C70.9356 48.6602 70.8125 48.834 70.6602 48.998C70.5117 49.166 70.3262 49.3008 70.1035 49.4023C69.8809 49.5078 69.6113 49.5605 69.2949 49.5605C69.1699 49.5605 69.0488 49.5488 68.9316 49.5254C68.8184 49.5059 68.7109 49.4844 68.6094 49.4609L68.6035 48.3828C68.6426 48.3867 68.6895 48.3906 68.7441 48.3945C68.8027 48.3984 68.8496 48.4004 68.8848 48.4004C69.1191 48.4004 69.3145 48.3711 69.4707 48.3125C69.627 48.2578 69.7539 48.168 69.8516 48.043C69.9531 47.918 70.0391 47.75 70.1094 47.5391L70.5664 46.3086ZM69.5938 40.6602L71.0996 45.4062L71.3516 46.8945L70.3731 47.1465L68.0703 40.6602H69.5938Z" fill="#788891"/>
<path d="M78.377 45.2891L80.2637 40.6602H81.4883L78.8574 47H77.8965L75.2715 40.6602H76.4961L78.377 45.2891ZM76.1328 40.6602V47H74.7207V40.6602H76.1328ZM80.6211 47V40.6602H82.0391V47H80.6211Z" fill="#788891"/>
<path d="M87.9512 43.3086V44.4219H84.6699V43.3086H87.9512ZM85.0801 40.6602V47H83.668V40.6602H85.0801ZM88.9707 40.6602V47H87.5586V40.6602H88.9707Z" fill="#788891"/>
<path d="M91.5254 42.6758H93.3945C93.9414 42.6758 94.4063 42.7676 94.7891 42.9512C95.1719 43.1348 95.4629 43.3906 95.6621 43.7188C95.8652 44.043 95.9668 44.4141 95.9668 44.832C95.9668 45.1406 95.9102 45.4277 95.7969 45.6934C95.6836 45.9551 95.5156 46.1836 95.293 46.3789C95.0742 46.5742 94.8047 46.7266 94.4844 46.8359C94.168 46.9453 93.8047 47 93.3945 47H90.5879V40.6602H92.0059V45.8809H93.3945C93.6758 45.8809 93.9004 45.832 94.0684 45.7344C94.2363 45.6367 94.3574 45.5098 94.4316 45.3535C94.5098 45.1973 94.5488 45.0312 94.5488 44.8555C94.5488 44.6758 94.5098 44.5059 94.4316 44.3457C94.3574 44.1855 94.2363 44.0547 94.0684 43.9531C93.9004 43.8516 93.6758 43.8008 93.3945 43.8008H91.5254V42.6758ZM98.4629 40.6602V47H97.0508V40.6602H98.4629Z" fill="#788891"/>
<path d="M102.928 47.1172C102.459 47.1172 102.035 47.041 101.656 46.8887C101.281 46.7324 100.961 46.5156 100.695 46.2383C100.434 45.9609 100.232 45.6348 100.092 45.2598C99.9512 44.8848 99.8809 44.4805 99.8809 44.0469V43.8125C99.8809 43.3164 99.9531 42.8672 100.098 42.4648C100.242 42.0625 100.443 41.7188 100.701 41.4336C100.959 41.1445 101.264 40.9238 101.615 40.7715C101.967 40.6191 102.348 40.543 102.758 40.543C103.211 40.543 103.607 40.6191 103.947 40.7715C104.287 40.9238 104.568 41.1387 104.791 41.416C105.018 41.6895 105.186 42.0156 105.295 42.3945C105.408 42.7734 105.465 43.1914 105.465 43.6484V44.252H100.566V43.2383H104.07V43.127C104.063 42.873 104.012 42.6348 103.918 42.4121C103.828 42.1895 103.689 42.0098 103.502 41.873C103.314 41.7363 103.064 41.668 102.752 41.668C102.518 41.668 102.309 41.7188 102.125 41.8203C101.945 41.918 101.795 42.0605 101.674 42.248C101.553 42.4355 101.459 42.6621 101.393 42.9277C101.33 43.1895 101.299 43.4844 101.299 43.8125V44.0469C101.299 44.3242 101.336 44.582 101.41 44.8203C101.488 45.0547 101.602 45.2598 101.75 45.4355C101.898 45.6113 102.078 45.75 102.289 45.8516C102.5 45.9492 102.74 45.998 103.01 45.998C103.35 45.998 103.652 45.9297 103.918 45.793C104.184 45.6562 104.414 45.4629 104.609 45.2129L105.354 45.9336C105.217 46.1328 105.039 46.3242 104.82 46.5078C104.602 46.6875 104.334 46.834 104.018 46.9473C103.705 47.0605 103.342 47.1172 102.928 47.1172Z" fill="#788891"/>
<path d="M112.496 40.6602V47H111.078V40.6602H112.496ZM114.576 40.6602V41.7734H109.033V40.6602H114.576Z" fill="#788891"/>
<path d="M117.881 47.1172C117.412 47.1172 116.988 47.041 116.609 46.8887C116.234 46.7324 115.914 46.5156 115.648 46.2383C115.387 45.9609 115.186 45.6348 115.045 45.2598C114.904 44.8848 114.834 44.4805 114.834 44.0469V43.8125C114.834 43.3164 114.906 42.8672 115.051 42.4648C115.195 42.0625 115.396 41.7188 115.654 41.4336C115.912 41.1445 116.217 40.9238 116.568 40.7715C116.92 40.6191 117.301 40.543 117.711 40.543C118.164 40.543 118.561 40.6191 118.9 40.7715C119.24 40.9238 119.521 41.1387 119.744 41.416C119.971 41.6895 120.139 42.0156 120.248 42.3945C120.361 42.7734 120.418 43.1914 120.418 43.6484V44.252H115.52V43.2383H119.023V43.127C119.016 42.873 118.965 42.6348 118.871 42.4121C118.781 42.1895 118.643 42.0098 118.455 41.873C118.268 41.7363 118.018 41.668 117.705 41.668C117.471 41.668 117.262 41.7188 117.078 41.8203C116.898 41.918 116.748 42.0605 116.627 42.248C116.506 42.4355 116.412 42.6621 116.346 42.9277C116.283 43.1895 116.252 43.4844 116.252 43.8125V44.0469C116.252 44.3242 116.289 44.582 116.363 44.8203C116.441 45.0547 116.555 45.2598 116.703 45.4355C116.852 45.6113 117.031 45.75 117.242 45.8516C117.453 45.9492 117.693 45.998 117.963 45.998C118.303 45.998 118.605 45.9297 118.871 45.793C119.137 45.6562 119.367 45.4629 119.563 45.2129L120.307 45.9336C120.17 46.1328 119.992 46.3242 119.773 46.5078C119.555 46.6875 119.287 46.834 118.971 46.9473C118.658 47.0605 118.295 47.1172 117.881 47.1172Z" fill="#788891"/>
<path d="M122.598 40.6602L123.805 42.7637L125.035 40.6602H126.588L124.666 43.7715L126.664 47H125.111L123.822 44.8086L122.533 47H120.975L122.967 43.7715L121.051 40.6602H122.598Z" fill="#788891"/>
<path d="M131.885 43.3086V44.4219H128.604V43.3086H131.885ZM129.014 40.6602V47H127.602V40.6602H129.014ZM132.904 40.6602V47H131.492V40.6602H132.904Z" fill="#788891"/>
<path d="M134.141 43.9004V43.7656C134.141 43.3086 134.207 42.8848 134.34 42.4941C134.473 42.0996 134.664 41.7578 134.914 41.4688C135.168 41.1758 135.477 40.9492 135.84 40.7891C136.207 40.625 136.621 40.543 137.082 40.543C137.547 40.543 137.961 40.625 138.324 40.7891C138.691 40.9492 139.002 41.1758 139.256 41.4688C139.51 41.7578 139.703 42.0996 139.836 42.4941C139.969 42.8848 140.035 43.3086 140.035 43.7656V43.9004C140.035 44.3574 139.969 44.7812 139.836 45.1719C139.703 45.5625 139.51 45.9043 139.256 46.1973C139.002 46.4863 138.693 46.7129 138.33 46.877C137.967 47.0371 137.555 47.1172 137.094 47.1172C136.629 47.1172 136.213 47.0371 135.846 46.877C135.482 46.7129 135.174 46.4863 134.92 46.1973C134.666 45.9043 134.473 45.5625 134.34 45.1719C134.207 44.7812 134.141 44.3574 134.141 43.9004ZM135.553 43.7656V43.9004C135.553 44.1855 135.582 44.4551 135.641 44.709C135.699 44.9629 135.791 45.1855 135.916 45.377C136.041 45.5684 136.201 45.7188 136.396 45.8281C136.592 45.9375 136.824 45.9922 137.094 45.9922C137.355 45.9922 137.582 45.9375 137.773 45.8281C137.969 45.7188 138.129 45.5684 138.254 45.377C138.379 45.1855 138.471 44.9629 138.529 44.709C138.592 44.4551 138.623 44.1855 138.623 43.9004V43.7656C138.623 43.4844 138.592 43.2188 138.529 42.9688C138.471 42.7148 138.377 42.4902 138.248 42.2949C138.123 42.0996 137.963 41.9473 137.768 41.8379C137.576 41.7246 137.348 41.668 137.082 41.668C136.816 41.668 136.586 41.7246 136.391 41.8379C136.199 41.9473 136.041 42.0996 135.916 42.2949C135.791 42.4902 135.699 42.7148 135.641 42.9688C135.582 43.2188 135.553 43.4844 135.553 43.7656Z" fill="#788891"/>
<path d="M145.385 40.6602V41.7852H142.291V40.6602H145.385ZM146.492 40.6602V47H145.08V40.6602H146.492ZM141.945 40.6602H143.34L143.17 43.7949C143.146 44.2598 143.1 44.6699 143.029 45.0254C142.963 45.377 142.873 45.6797 142.76 45.9336C142.646 46.1836 142.508 46.3867 142.344 46.543C142.18 46.6992 141.988 46.8145 141.77 46.8887C141.551 46.9629 141.305 47 141.031 47H140.592L140.586 45.8398L140.809 45.8223C140.953 45.8105 141.078 45.7734 141.184 45.7109C141.289 45.6445 141.379 45.5508 141.453 45.4297C141.531 45.3086 141.594 45.1523 141.641 44.9609C141.691 44.7695 141.73 44.543 141.758 44.2812C141.789 44.0195 141.812 43.7148 141.828 43.3672L141.945 40.6602Z" fill="#788891"/>
<path d="M147.723 43.9004V43.7656C147.723 43.3086 147.789 42.8848 147.922 42.4941C148.055 42.0996 148.246 41.7578 148.496 41.4688C148.75 41.1758 149.059 40.9492 149.422 40.7891C149.789 40.625 150.203 40.543 150.664 40.543C151.129 40.543 151.543 40.625 151.906 40.7891C152.273 40.9492 152.584 41.1758 152.838 41.4688C153.092 41.7578 153.285 42.0996 153.418 42.4941C153.551 42.8848 153.617 43.3086 153.617 43.7656V43.9004C153.617 44.3574 153.551 44.7812 153.418 45.1719C153.285 45.5625 153.092 45.9043 152.838 46.1973C152.584 46.4863 152.275 46.7129 151.912 46.877C151.549 47.0371 151.137 47.1172 150.676 47.1172C150.211 47.1172 149.795 47.0371 149.428 46.877C149.064 46.7129 148.756 46.4863 148.502 46.1973C148.248 45.9043 148.055 45.5625 147.922 45.1719C147.789 44.7812 147.723 44.3574 147.723 43.9004ZM149.135 43.7656V43.9004C149.135 44.1855 149.164 44.4551 149.223 44.709C149.281 44.9629 149.373 45.1855 149.498 45.377C149.623 45.5684 149.783 45.7188 149.979 45.8281C150.174 45.9375 150.406 45.9922 150.676 45.9922C150.938 45.9922 151.164 45.9375 151.355 45.8281C151.551 45.7188 151.711 45.5684 151.836 45.377C151.961 45.1855 152.053 44.9629 152.111 44.709C152.174 44.4551 152.205 44.1855 152.205 43.9004V43.7656C152.205 43.4844 152.174 43.2188 152.111 42.9688C152.053 42.7148 151.959 42.4902 151.83 42.2949C151.705 42.0996 151.545 41.9473 151.35 41.8379C151.158 41.7246 150.93 41.668 150.664 41.668C150.398 41.668 150.168 41.7246 149.973 41.8379C149.781 41.9473 149.623 42.0996 149.498 42.2949C149.373 42.4902 149.281 42.7148 149.223 42.9688C149.164 43.2188 149.135 43.4844 149.135 43.7656Z" fill="#788891"/>
<path d="M159.02 40.6602V41.7852H156.254V47H154.842V40.6602H159.02Z" fill="#788891"/>
<path d="M161.299 44.9375L163.789 40.6602H165.201V47H163.789V42.7168L161.299 47H159.887V40.6602H161.299V44.9375Z" fill="#788891"/>
<path d="M168.154 44.9375L170.645 40.6602H172.057V47H170.645V42.7168L168.154 47H166.742V40.6602H168.154V44.9375Z" fill="#788891"/>
<path d="M32.0667 13.8664C33.1951 13.8664 34.1484 14.5936 34.5072 15.5997H43.4928C43.8516 14.5936 44.8049 13.8664 45.9333 13.8664C47.3668 13.8664 48.5333 15.033 48.5333 16.4664C48.5333 17.8998 47.3668 19.0664 45.9333 19.0664C44.8049 19.0664 43.8516 18.3392 43.4928 17.333H34.5063C34.1475 18.3392 33.1942 19.0664 32.0658 19.0664C30.6323 19.0664 29.4658 17.8998 29.4658 16.4664C29.4658 15.033 30.6332 13.8664 32.0667 13.8664ZM45.9333 17.333C46.4109 17.333 46.8 16.9448 46.8 16.4664C46.8 15.988 46.4109 15.5997 45.9333 15.5997C45.4558 15.5997 45.0667 15.988 45.0667 16.4664C45.0667 16.9448 45.4558 17.333 45.9333 17.333ZM32.0667 17.333C32.5442 17.333 32.9333 16.9448 32.9333 16.4664C32.9333 15.988 32.5442 15.5997 32.0667 15.5997C31.5891 15.5997 31.2 15.988 31.2 16.4664C31.2 16.9448 31.5891 17.333 32.0667 17.333Z" fill="#00B2FF"/>
<path d="M25.1333 19.2258V13.8664C25.1333 13.6359 25.2243 13.4158 25.3873 13.2537L28.8539 9.7871C29.016 9.62417 29.237 9.53317 29.4667 9.53317H32.2261C32.5849 8.52699 33.5383 7.79987 34.6667 7.79987C36.1001 7.79987 37.2667 8.96638 37.2667 10.3998C37.2667 11.8333 36.1001 12.9998 34.6667 12.9998C33.5383 12.9998 32.5849 12.2727 32.2261 11.2665H29.8255L26.8667 14.2252V19.2258C27.8729 19.5846 28.6 20.5379 28.6 21.6663C28.6 23.0997 27.4335 24.2663 26 24.2663C24.5665 24.2663 23.4 23.0997 23.4 21.6663C23.4 20.5379 24.1271 19.5846 25.1333 19.2258ZM34.6667 11.2665C35.1442 11.2665 35.5333 10.8782 35.5333 10.3998C35.5333 9.92143 35.1442 9.53317 34.6667 9.53317C34.1891 9.53317 33.8 9.92143 33.8 10.3998C33.8 10.8782 34.1891 11.2665 34.6667 11.2665ZM26 22.533C26.4775 22.533 26.8667 22.1447 26.8667 21.6663C26.8667 21.1879 26.4775 20.7997 26 20.7997C25.5225 20.7997 25.1333 21.1879 25.1333 21.6663C25.1333 22.1447 25.5225 22.533 26 22.533Z" fill="#00B2FF"/>
<path d="M9.53334 22.533C9.93374 22.533 10.3081 22.6309 10.647 22.7938L12.1333 21.3075V12.9998C12.1333 12.7693 12.2243 12.5491 12.3873 12.3871L21.0609 3.7136C20.8979 3.37474 20.8 3.00035 20.8 2.59996C20.8 1.16651 21.9665 0 23.4 0C24.8335 0 26 1.16651 26 2.59996C26 4.0334 24.8335 5.19991 23.4 5.19991C22.9996 5.19991 22.6252 5.10198 22.2863 4.93905L13.8667 13.3586V21.6663C13.8667 21.8968 13.7757 22.117 13.6127 22.279L11.8725 24.0193C12.0354 24.3581 12.1333 24.7325 12.1333 25.1329C12.1333 26.5664 10.9668 27.7329 9.53334 27.7329C8.09987 27.7329 6.93334 26.5664 6.93334 25.1329C6.93334 23.6995 8.09987 22.533 9.53334 22.533ZM23.4 3.46661C23.8775 3.46661 24.2667 3.07835 24.2667 2.59996C24.2667 2.12156 23.8775 1.7333 23.4 1.7333C22.9225 1.7333 22.5333 2.12156 22.5333 2.59996C22.5333 3.07835 22.9225 3.46661 23.4 3.46661ZM9.53334 25.9996C10.0109 25.9996 10.4 25.6113 10.4 25.1329C10.4 24.6545 10.0109 24.2663 9.53334 24.2663C9.0558 24.2663 8.66667 24.6545 8.66667 25.1329C8.66667 25.6113 9.0558 25.9996 9.53334 25.9996Z" fill="#00B2FF"/>
<path d="M1.73334 12.2926V8.66652C1.73334 8.43599 1.82434 8.21586 1.98728 8.0538L8.05394 1.98723C8.21601 1.8243 8.43701 1.7333 8.66668 1.7333H13.1595C13.5183 0.727121 14.4716 0 15.6 0C17.0335 0 18.2 1.16651 18.2 2.59996C18.2 4.0334 17.0335 5.19991 15.6 5.19991C14.4716 5.19991 13.5183 4.47279 13.1595 3.46661H9.02548L3.46668 9.02532V12.2926C4.47288 12.6514 5.20001 13.6047 5.20001 14.7331C5.20001 16.1665 4.03348 17.333 2.60001 17.333C1.16654 17.333 1.03712e-05 16.1665 1.03712e-05 14.7331C1.03712e-05 13.6047 0.727144 12.6514 1.73334 12.2926ZM15.6 3.46661C16.0775 3.46661 16.4667 3.07835 16.4667 2.59996C16.4667 2.12156 16.0775 1.7333 15.6 1.7333C15.1225 1.7333 14.7333 2.12156 14.7333 2.59996C14.7333 3.07835 15.1225 3.46661 15.6 3.46661ZM2.60001 15.5997C3.07754 15.5997 3.46668 15.2115 3.46668 14.7331C3.46668 14.2547 3.07754 13.8664 2.60001 13.8664C2.12248 13.8664 1.73334 14.2547 1.73334 14.7331C1.73334 15.2115 2.12248 15.5997 2.60001 15.5997Z" fill="#00B2FF"/>
<path d="M13.8658 46.9595V34.5066C12.8605 34.1478 12.1333 33.1945 12.1333 32.0661C12.1333 30.6327 13.2999 29.4662 14.7333 29.4662C15.8617 29.4662 16.8151 30.1933 17.1739 31.1995H26.1595C26.5183 30.1933 27.4716 29.4662 28.6 29.4662C29.7284 29.4662 30.6817 30.1933 31.0405 31.1995H36.0412L39.2609 27.9799C39.0979 27.641 39 27.2666 39 26.8662C39 25.4328 40.1665 24.2663 41.6 24.2663C43.0335 24.2663 44.2 25.4328 44.2 26.8662C44.2 28.2997 43.0335 29.4662 41.6 29.4662C41.1996 29.4662 40.8252 29.3682 40.4863 29.2053L37.0127 32.6789C36.8507 32.8418 36.6297 32.9328 36.4 32.9328H31.0405C30.6817 33.939 29.7284 34.6661 28.6 34.6661C27.4716 34.6661 26.5183 33.939 26.1595 32.9328H17.173C16.9113 33.6668 16.3332 34.2449 15.5991 34.5066V46.9595C16.6053 47.3183 17.3325 48.2717 17.3325 49.4C17.3325 50.8335 16.1659 52 14.7325 52C13.299 52 12.1325 50.8335 12.1325 49.4C12.1325 48.2717 12.8596 47.3183 13.8658 46.9595ZM41.6 27.7329C42.0775 27.7329 42.4667 27.3446 42.4667 26.8662C42.4667 26.3878 42.0775 25.9996 41.6 25.9996C41.1225 25.9996 40.7333 26.3878 40.7333 26.8662C40.7333 27.3446 41.1225 27.7329 41.6 27.7329ZM28.6 32.9328C29.0775 32.9328 29.4667 32.5445 29.4667 32.0661C29.4667 31.5877 29.0775 31.1995 28.6 31.1995C28.1225 31.1995 27.7333 31.5877 27.7333 32.0661C27.7333 32.5445 28.1225 32.9328 28.6 32.9328ZM14.7333 50.2658C15.2109 50.2658 15.6 49.8776 15.6 49.3992C15.6 48.9208 15.2109 48.5325 14.7333 48.5325C14.2558 48.5325 13.8667 48.9208 13.8667 49.3992C13.8667 49.8776 14.2558 50.2658 14.7333 50.2658ZM14.7333 32.9328C15.2109 32.9328 15.6 32.5445 15.6 32.0661C15.6 31.5877 15.2109 31.1995 14.7333 31.1995C14.2558 31.1995 13.8667 31.5877 13.8667 32.0661C13.8667 32.5445 14.2558 32.9328 14.7333 32.9328Z" fill="#00B2FF"/>
<path d="M18.2 17.4925V14.7331C18.2 14.5026 18.291 14.2824 18.4539 14.1204L28.8609 3.7136C28.6979 3.37474 28.6 3.00035 28.6 2.59996C28.6 1.16651 29.7665 0 31.2 0C32.3284 0 33.2817 0.727121 33.6405 1.7333H37.2667C37.7451 1.7333 38.1333 2.1207 38.1333 2.59996V4.84112L41.353 8.06073C41.6919 7.8978 42.0663 7.79987 42.4667 7.79987C43.9001 7.79987 45.0667 8.96638 45.0667 10.3998C45.0667 11.8333 43.9001 12.9998 42.4667 12.9998C41.0332 12.9998 39.8667 11.8333 39.8667 10.3998C39.8667 9.99943 39.9646 9.62504 40.1275 9.28618L36.6539 5.81264C36.491 5.65057 36.4 5.43044 36.4 5.19991V3.46661H33.6405C33.2817 4.47279 32.3284 5.19991 31.2 5.19991C30.7996 5.19991 30.4252 5.10198 30.0863 4.93905L19.9333 15.0919V17.4925C20.9395 17.8513 21.6667 18.8046 21.6667 19.933C21.6667 21.3664 20.5001 22.533 19.0667 22.533C17.6332 22.533 16.4667 21.3664 16.4667 19.933C16.4667 18.8046 17.1938 17.8513 18.2 17.4925ZM42.4667 11.2665C42.9442 11.2665 43.3333 10.8782 43.3333 10.3998C43.3333 9.92143 42.9442 9.53317 42.4667 9.53317C41.9891 9.53317 41.6 9.92143 41.6 10.3998C41.6 10.8782 41.9891 11.2665 42.4667 11.2665ZM31.2 3.46661C31.6775 3.46661 32.0667 3.07835 32.0667 2.59996C32.0667 2.12156 31.6775 1.7333 31.2 1.7333C30.7225 1.7333 30.3333 2.12156 30.3333 2.59996C30.3333 3.07835 30.7225 3.46661 31.2 3.46661ZM19.0667 20.7997C19.5442 20.7997 19.9333 20.4114 19.9333 19.933C19.9333 19.4546 19.5442 19.0663 19.0667 19.0663C18.5891 19.0663 18.2 19.4546 18.2 19.933C18.2 20.4114 18.5891 20.7997 19.0667 20.7997Z" fill="#00B2FF"/>
<path d="M20.8 24.2663C21.9284 24.2663 22.8817 24.9934 23.2405 25.9996H33.4412L38.3873 21.0536C38.5493 20.8907 38.7703 20.7997 39 20.7997H48.1745L50.2667 18.7076V11.6253L43.5803 4.93905C43.2415 5.10198 42.8671 5.19991 42.4667 5.19991C41.0332 5.19991 39.8667 4.0334 39.8667 2.59996C39.8667 1.16651 41.0332 0 42.4667 0C43.9001 0 45.0667 1.16651 45.0667 2.59996C45.0667 3.00035 44.9687 3.37474 44.8058 3.7136L51.7461 10.6538C51.909 10.8158 52 11.0359 52 11.2665V19.0663C52 19.2969 51.909 19.517 51.7461 19.6791L49.1461 22.279C48.984 22.442 48.763 22.533 48.5333 22.533H39.3588L34.4127 27.4789C34.2507 27.6419 34.0297 27.7329 33.8 27.7329H23.2405C22.8817 28.7391 21.9284 29.4662 20.8 29.4662C19.3665 29.4662 18.2 28.2997 18.2 26.8662C18.2 25.4328 19.3665 24.2663 20.8 24.2663ZM42.4667 1.7333C41.9891 1.7333 41.6 2.12156 41.6 2.59996C41.6 3.07835 41.9891 3.46661 42.4667 3.46661C42.9442 3.46661 43.3333 3.07835 43.3333 2.59996C43.3333 2.12156 42.9442 1.7333 42.4667 1.7333ZM20.8 27.7329C21.2775 27.7329 21.6667 27.3446 21.6667 26.8662C21.6667 26.3878 21.2775 25.9996 20.8 25.9996C20.3225 25.9996 19.9333 26.3878 19.9333 26.8662C19.9333 27.3446 20.3225 27.7329 20.8 27.7329Z" fill="#00B2FF"/>
<path d="M2.6 20.7997C3.0004 20.7997 3.3748 20.8976 3.71367 21.0605L6.93333 17.8409V12.8403C5.92713 12.4815 5.2 11.5282 5.2 10.3998C5.2 8.96638 6.36653 7.79987 7.8 7.79987C9.23347 7.79987 10.4 8.96638 10.4 10.3998C10.4 11.5282 9.67287 12.4815 8.66667 12.8403V18.1997C8.66667 18.4302 8.57567 18.6504 8.41273 18.8124L4.93913 22.286C5.10207 22.6248 5.2 22.9992 5.2 23.3996C5.2 24.528 4.47287 25.4813 3.46667 25.8401V26.5074L10.1461 33.1867C10.309 33.3488 10.4 33.5689 10.4 33.7994V34.8256C11.4062 35.1843 12.1333 36.1377 12.1333 37.266C12.1333 38.3944 11.4062 39.3477 10.4 39.7065V41.7596C11.4062 42.1184 12.1333 43.0717 12.1333 44.2001C12.1333 45.6336 10.9668 46.8001 9.53333 46.8001C8.09987 46.8001 6.93333 45.6336 6.93333 44.2001C6.93333 43.0717 7.66047 42.1184 8.66667 41.7596V39.7065C7.66047 39.3477 6.93333 38.3944 6.93333 37.266C6.93333 36.1377 7.66047 35.1843 8.66667 34.8256V34.1582L1.98727 27.4789C1.82433 27.3169 1.73333 27.0967 1.73333 26.8662V25.8401C0.727133 25.4813 0 24.528 0 23.3996C0 21.9662 1.16653 20.7997 2.6 20.7997ZM7.8 11.2665C8.27753 11.2665 8.66667 10.8782 8.66667 10.3998C8.66667 9.92143 8.27753 9.53317 7.8 9.53317C7.32247 9.53317 6.93333 9.92143 6.93333 10.3998C6.93333 10.8782 7.32247 11.2665 7.8 11.2665ZM9.53333 45.0659C10.0109 45.0659 10.4 44.6777 10.4 44.1993C10.4 43.7209 10.0109 43.3326 9.53333 43.3326C9.0558 43.3326 8.66667 43.7209 8.66667 44.1993C8.66667 44.6777 9.0558 45.0659 9.53333 45.0659ZM9.53333 38.1327C10.0109 38.1327 10.4 37.7444 10.4 37.266C10.4 36.7877 10.0109 36.3994 9.53333 36.3994C9.0558 36.3994 8.66667 36.7877 8.66667 37.266C8.66667 37.7444 9.0558 38.1327 9.53333 38.1327ZM2.6 24.2663C3.07753 24.2663 3.46667 23.878 3.46667 23.3996C3.46667 22.9212 3.07753 22.533 2.6 22.533C2.12247 22.533 1.73333 22.9212 1.73333 23.3996C1.73333 23.878 2.12247 24.2663 2.6 24.2663Z" fill="#00B2FF"/>
</svg>
