<svg>

  <symbol id="logo" viewBox="0 0 38 38" fill="none" xmlns="http://www.w3.org/2000/svg">
    <path d="M23.4335 10.1332C24.2581 10.1332 24.9547 10.6645 25.2169 11.3998H31.7833C32.0455 10.6645 32.7422 10.1332 33.5668 10.1332C34.6143 10.1332 35.4668 10.9856 35.4668 12.0331C35.4668 13.0807 34.6143 13.9331 33.5668 13.9331C32.7422 13.9331 32.0455 13.4018 31.7833 12.6665H25.2163C24.9541 13.4018 24.2574 13.9331 23.4328 13.9331C22.3853 13.9331 21.5328 13.0807 21.5328 12.0331C21.5328 10.9856 22.3859 10.1332 23.4335 10.1332ZM33.5668 12.6665C33.9158 12.6665 34.2001 12.3827 34.2001 12.0331C34.2001 11.6836 33.9158 11.3998 33.5668 11.3998C33.2178 11.3998 32.9335 11.6836 32.9335 12.0331C32.9335 12.3827 33.2178 12.6665 33.5668 12.6665ZM23.4335 12.6665C23.7824 12.6665 24.0668 12.3827 24.0668 12.0331C24.0668 11.6836 23.7824 11.3998 23.4335 11.3998C23.0845 11.3998 22.8001 11.6836 22.8001 12.0331C22.8001 12.3827 23.0845 12.6665 23.4335 12.6665Z" fill="#00B2FF" />
    <path d="M18.3667 14.0497V10.1332C18.3667 9.96475 18.4332 9.80388 18.5523 9.68545L21.0856 7.15216C21.2041 7.0331 21.3656 6.9666 21.5334 6.9666H23.5499C23.8121 6.23131 24.5088 5.69995 25.3334 5.69995C26.3809 5.69995 27.2334 6.5524 27.2334 7.59992C27.2334 8.64744 26.3809 9.49989 25.3334 9.49989C24.5088 9.49989 23.8121 8.96853 23.5499 8.23324H21.7956L19.6334 10.3954V14.0497C20.3687 14.3119 20.9001 15.0085 20.9001 15.8331C20.9001 16.8806 20.0476 17.7331 19.0001 17.7331C17.9525 17.7331 17.1001 16.8806 17.1001 15.8331C17.1001 15.0085 17.6314 14.3119 18.3667 14.0497ZM25.3334 8.23324C25.6824 8.23324 25.9667 7.94951 25.9667 7.59992C25.9667 7.25033 25.6824 6.9666 25.3334 6.9666C24.9844 6.9666 24.7001 7.25033 24.7001 7.59992C24.7001 7.94951 24.9844 8.23324 25.3334 8.23324ZM19.0001 16.4664C19.349 16.4664 19.6334 16.1827 19.6334 15.8331C19.6334 15.4835 19.349 15.1998 19.0001 15.1998C18.6511 15.1998 18.3667 15.4835 18.3667 15.8331C18.3667 16.1827 18.6511 16.4664 19.0001 16.4664Z" fill="#00B2FF" />
    <path d="M6.96667 16.4664C7.25927 16.4664 7.53287 16.538 7.7805 16.657L8.86667 15.5709V9.49984C8.86667 9.33138 8.93317 9.17051 9.05223 9.05208L15.3906 2.71379C15.2716 2.46616 15.2 2.19256 15.2 1.89997C15.2 0.852452 16.0525 0 17.1 0C18.1475 0 19 0.852452 19 1.89997C19 2.94748 18.1475 3.79994 17.1 3.79994C16.8074 3.79994 16.5338 3.72837 16.2862 3.60931L10.1333 9.76204V15.8331C10.1333 16.0015 10.0668 16.1624 9.94777 16.2808L8.67603 17.5525C8.7951 17.8002 8.86667 18.0738 8.86667 18.3664C8.86667 19.4139 8.0142 20.2663 6.96667 20.2663C5.91913 20.2663 5.06667 19.4139 5.06667 18.3664C5.06667 17.3188 5.91913 16.4664 6.96667 16.4664ZM17.1 2.53329C17.449 2.53329 17.7333 2.24956 17.7333 1.89997C17.7333 1.55037 17.449 1.26665 17.1 1.26665C16.751 1.26665 16.4667 1.55037 16.4667 1.89997C16.4667 2.24956 16.751 2.53329 17.1 2.53329ZM6.96667 18.9997C7.31563 18.9997 7.6 18.716 7.6 18.3664C7.6 18.0168 7.31563 17.733 6.96667 17.733C6.6177 17.733 6.33333 18.0168 6.33333 18.3664C6.33333 18.716 6.6177 18.9997 6.96667 18.9997Z" fill="#00B2FF" />
    <path d="M1.26696 8.98305V6.33323C1.26696 6.16476 1.33346 6.0039 1.45253 5.88547L5.88586 1.45221C6.00429 1.33314 6.16579 1.26665 6.33363 1.26665H9.61683C9.87903 0.531358 10.5757 0 11.4003 0C12.4478 0 13.3003 0.852452 13.3003 1.89997C13.3003 2.94748 12.4478 3.79994 11.4003 3.79994C10.5757 3.79994 9.87903 3.26858 9.61683 2.53329H6.59583L2.53363 6.59542V8.98305C3.26893 9.24525 3.80029 9.9419 3.80029 10.7665C3.80029 11.814 2.94783 12.6665 1.90029 12.6665C0.852759 12.6665 0.000292778 11.814 0.000292778 10.7665C0.000292778 9.9419 0.53166 9.24525 1.26696 8.98305ZM11.4003 2.53329C11.7493 2.53329 12.0336 2.24956 12.0336 1.89997C12.0336 1.55037 11.7493 1.26665 11.4003 1.26665C11.0513 1.26665 10.767 1.55037 10.767 1.89997C10.767 2.24956 11.0513 2.53329 11.4003 2.53329ZM1.90029 11.3998C2.24926 11.3998 2.53363 11.1161 2.53363 10.7665C2.53363 10.4169 2.24926 10.1332 1.90029 10.1332C1.55133 10.1332 1.26696 10.4169 1.26696 10.7665C1.26696 11.1161 1.55133 11.3998 1.90029 11.3998Z" fill="#00B2FF" />
    <path d="M10.133 34.3166V25.2164C9.39833 24.9542 8.86696 24.2575 8.86696 23.4329C8.86696 22.3854 9.71943 21.533 10.767 21.533C11.5916 21.533 12.2882 22.0643 12.5504 22.7996H19.1168C19.379 22.0643 20.0757 21.533 20.9003 21.533C21.7249 21.533 22.4216 22.0643 22.6838 22.7996H26.3381L28.6909 20.4468C28.5719 20.1992 28.5003 19.9256 28.5003 19.633C28.5003 18.5855 29.3528 17.733 30.4003 17.733C31.4478 17.733 32.3003 18.5855 32.3003 19.633C32.3003 20.6805 31.4478 21.533 30.4003 21.533C30.1077 21.533 29.8341 21.4614 29.5865 21.3423L27.0481 23.8807C26.9296 23.9998 26.7681 24.0663 26.6003 24.0663H22.6838C22.4216 24.8015 21.7249 25.3329 20.9003 25.3329C20.0757 25.3329 19.379 24.8015 19.1168 24.0663H12.5498C12.3585 24.6027 11.9361 25.0251 11.3997 25.2164V34.3166C12.135 34.5788 12.6663 35.2754 12.6663 36.1C12.6663 37.1475 11.8139 38 10.7663 38C9.71879 38 8.86633 37.1475 8.86633 36.1C8.86633 35.2754 9.39769 34.5788 10.133 34.3166ZM30.4003 20.2663C30.7493 20.2663 31.0336 19.9826 31.0336 19.633C31.0336 19.2834 30.7493 18.9997 30.4003 18.9997C30.0513 18.9997 29.767 19.2834 29.767 19.633C29.767 19.9826 30.0513 20.2663 30.4003 20.2663ZM20.9003 24.0663C21.2493 24.0663 21.5336 23.7825 21.5336 23.4329C21.5336 23.0833 21.2493 22.7996 20.9003 22.7996C20.5513 22.7996 20.267 23.0833 20.267 23.4329C20.267 23.7825 20.5513 24.0663 20.9003 24.0663ZM10.767 36.7327C11.1159 36.7327 11.4003 36.449 11.4003 36.0994C11.4003 35.7498 11.1159 35.4661 10.767 35.4661C10.418 35.4661 10.1336 35.7498 10.1336 36.0994C10.1336 36.449 10.418 36.7327 10.767 36.7327ZM10.767 24.0663C11.1159 24.0663 11.4003 23.7825 11.4003 23.4329C11.4003 23.0833 11.1159 22.7996 10.767 22.7996C10.418 22.7996 10.1336 23.0833 10.1336 23.4329C10.1336 23.7825 10.418 24.0663 10.767 24.0663Z" fill="#00B2FF" />
    <path d="M13.2998 12.783V10.7665C13.2998 10.598 13.3663 10.4372 13.4853 10.3187L21.0904 2.71379C20.9713 2.46616 20.8998 2.19256 20.8998 1.89997C20.8998 0.852452 21.7522 0 22.7998 0C23.6244 0 24.321 0.531358 24.5832 1.26665H27.2331C27.5827 1.26665 27.8664 1.54974 27.8664 1.89997V3.53774L30.2193 5.89053C30.4669 5.77147 30.7405 5.6999 31.0331 5.6999C32.0806 5.6999 32.9331 6.55236 32.9331 7.59987C32.9331 8.64739 32.0806 9.49984 31.0331 9.49984C29.9856 9.49984 29.1331 8.64739 29.1331 7.59987C29.1331 7.30728 29.2047 7.03368 29.3237 6.78605L26.7853 4.2477C26.6663 4.12926 26.5998 3.9684 26.5998 3.79994V2.53329H24.5832C24.321 3.26858 23.6244 3.79994 22.7998 3.79994C22.5072 3.79994 22.2336 3.72837 21.9859 3.60931L14.5664 11.0287V12.783C15.3017 13.0452 15.8331 13.7418 15.8331 14.5664C15.8331 15.6139 14.9806 16.4664 13.9331 16.4664C12.8856 16.4664 12.0331 15.6139 12.0331 14.5664C12.0331 13.7418 12.5645 13.0452 13.2998 12.783ZM31.0331 8.2332C31.3821 8.2332 31.6664 7.94947 31.6664 7.59987C31.6664 7.25028 31.3821 6.96655 31.0331 6.96655C30.6841 6.96655 30.3998 7.25028 30.3998 7.59987C30.3998 7.94947 30.6841 8.2332 31.0331 8.2332ZM22.7998 2.53329C23.1487 2.53329 23.4331 2.24956 23.4331 1.89997C23.4331 1.55037 23.1487 1.26665 22.7998 1.26665C22.4508 1.26665 22.1664 1.55037 22.1664 1.89997C22.1664 2.24956 22.4508 2.53329 22.7998 2.53329ZM13.9331 15.1997C14.2821 15.1997 14.5664 14.916 14.5664 14.5664C14.5664 14.2168 14.2821 13.9331 13.9331 13.9331C13.5841 13.9331 13.2998 14.2168 13.2998 14.5664C13.2998 14.916 13.5841 15.1997 13.9331 15.1997Z" fill="#00B2FF" />
    <path d="M15.2 17.733C16.0246 17.733 16.7213 18.2644 16.9835 18.9997H24.4378L28.0522 15.3853C28.1707 15.2662 28.3322 15.1997 28.5 15.1997H35.2045L36.7333 13.6709V8.49539L31.8472 3.60931C31.5995 3.72837 31.3259 3.79994 31.0333 3.79994C29.9858 3.79994 29.1333 2.94748 29.1333 1.89997C29.1333 0.852452 29.9858 0 31.0333 0C32.0809 0 32.9333 0.852452 32.9333 1.89997C32.9333 2.19256 32.8618 2.46616 32.7427 2.71379L37.8144 7.78544C37.9335 7.90387 38 8.06473 38 8.2332V13.9331C38 14.1016 37.9335 14.2624 37.8144 14.3809L35.9144 16.2808C35.796 16.3999 35.6345 16.4664 35.4667 16.4664H28.7622L25.1478 20.0808C25.0293 20.1998 24.8678 20.2663 24.7 20.2663H16.9835C16.7213 21.0016 16.0246 21.533 15.2 21.533C14.1525 21.533 13.3 20.6805 13.3 19.633C13.3 18.5855 14.1525 17.733 15.2 17.733ZM31.0333 1.26665C30.6844 1.26665 30.4 1.55037 30.4 1.89997C30.4 2.24956 30.6844 2.53329 31.0333 2.53329C31.3823 2.53329 31.6667 2.24956 31.6667 1.89997C31.6667 1.55037 31.3823 1.26665 31.0333 1.26665ZM15.2 20.2663C15.549 20.2663 15.8333 19.9826 15.8333 19.633C15.8333 19.2834 15.549 18.9997 15.2 18.9997C14.851 18.9997 14.5667 19.2834 14.5667 19.633C14.5667 19.9826 14.851 20.2663 15.2 20.2663Z" fill="#00B2FF" />
    <path d="M1.90052 15.1998C2.19312 15.1998 2.46672 15.2714 2.71435 15.3904L5.06719 13.0376V9.38336C4.33189 9.12116 3.80052 8.42451 3.80052 7.59992C3.80052 6.5524 4.65299 5.69995 5.70052 5.69995C6.74805 5.69995 7.60052 6.5524 7.60052 7.59992C7.60052 8.42451 7.06915 9.12116 6.33385 9.38336V13.2998C6.33385 13.4683 6.26735 13.6292 6.14829 13.7476L3.60989 16.2859C3.72896 16.5336 3.80052 16.8072 3.80052 17.0998C3.80052 17.9243 3.26915 18.621 2.53385 18.8832V19.3709L7.41495 24.2519C7.53402 24.3703 7.60052 24.5312 7.60052 24.6996V25.4495C8.33582 25.7117 8.86719 26.4083 8.86719 27.2329C8.86719 28.0575 8.33582 28.7542 7.60052 29.0164V30.5167C8.33582 30.7789 8.86719 31.4756 8.86719 32.3001C8.86719 33.3477 8.01472 34.2001 6.96719 34.2001C5.91965 34.2001 5.06719 33.3477 5.06719 32.3001C5.06719 31.4756 5.59855 30.7789 6.33385 30.5167V29.0164C5.59855 28.7542 5.06719 28.0575 5.06719 27.2329C5.06719 26.4083 5.59855 25.7117 6.33385 25.4495V24.9618L1.45275 20.0808C1.33369 19.9624 1.26719 19.8015 1.26719 19.6331V18.8832C0.531888 18.621 0.000520706 17.9243 0.000520706 17.0998C0.000520706 16.0522 0.852987 15.1998 1.90052 15.1998ZM5.70052 8.23324C6.04949 8.23324 6.33385 7.94951 6.33385 7.59992C6.33385 7.25033 6.04949 6.9666 5.70052 6.9666C5.35155 6.9666 5.06719 7.25033 5.06719 7.59992C5.06719 7.94951 5.35155 8.23324 5.70052 8.23324ZM6.96719 32.9328C7.31615 32.9328 7.60052 32.6491 7.60052 32.2995C7.60052 31.9499 7.31615 31.6662 6.96719 31.6662C6.61822 31.6662 6.33385 31.9499 6.33385 32.2995C6.33385 32.6491 6.61822 32.9328 6.96719 32.9328ZM6.96719 27.8662C7.31615 27.8662 7.60052 27.5825 7.60052 27.2329C7.60052 26.8833 7.31615 26.5996 6.96719 26.5996C6.61822 26.5996 6.33385 26.8833 6.33385 27.2329C6.33385 27.5825 6.61822 27.8662 6.96719 27.8662ZM1.90052 17.7331C2.24949 17.7331 2.53385 17.4494 2.53385 17.0998C2.53385 16.7502 2.24949 16.4664 1.90052 16.4664C1.55155 16.4664 1.26719 16.7502 1.26719 17.0998C1.26719 17.4494 1.55155 17.7331 1.90052 17.7331Z" fill="#00B2FF" />
  </symbol>


  <symbol id="icon-envelope" viewBox="0 0 26 19" xmlns="http://www.w3.org/2000/svg">
    <path d="M22.2407 0H3.09787C1.38906 0 0 1.34493 0 2.99946V15.6672C0 17.3217 1.38906 18.6667 3.09787 18.6667H22.2355C23.9443 18.6667 25.3333 17.3217 25.3333 15.6672V3.00453C25.3386 1.35001 23.9495 0 22.2407 0ZM23.9233 15.6672C23.9233 16.5655 23.1685 17.2964 22.2407 17.2964H3.09787C2.17008 17.2964 1.41527 16.5655 1.41527 15.6672V3.00453C1.41527 2.10622 2.17008 1.37539 3.09787 1.37539H22.2355C23.1632 1.37539 23.9181 2.10622 23.9181 3.00453V15.6672H23.9233Z" />
    <path d="M15.9768 9.17598L22.1725 3.79624C22.4608 3.54248 22.487 3.11108 22.2249 2.82687C21.9629 2.54773 21.5173 2.52236 21.2238 2.77612L12.6797 10.2012L11.0129 8.75981C11.0076 8.75473 11.0024 8.74966 11.0024 8.74458C10.9657 8.70905 10.929 8.6786 10.8871 8.64815L4.10425 2.77104C3.81071 2.51728 3.36517 2.54266 3.10308 2.82687C2.84099 3.11108 2.8672 3.54248 3.16074 3.79624L9.42986 9.22165L3.18695 14.8805C2.90389 15.1394 2.88817 15.5708 3.1555 15.8499C3.29702 15.992 3.48573 16.0681 3.67443 16.0681C3.84741 16.0681 4.02038 16.0072 4.15667 15.8854L10.4939 10.1453L12.2132 11.6324C12.3495 11.7491 12.5172 11.8049 12.685 11.8049C12.8527 11.8049 13.0257 11.744 13.1567 11.6273L14.9232 10.0946L21.2238 15.8905C21.3601 16.0174 21.5383 16.0783 21.7112 16.0783C21.9 16.0783 22.0834 16.0072 22.2249 15.8651C22.4923 15.5911 22.4818 15.1546 22.1987 14.8958L15.9768 9.17598Z" />
  </symbol>

  <symbol id="icon-phone-call" viewBox="0 0 25 24" xmlns="http://www.w3.org/2000/svg">
    <path d="M19.6447 14.8671C19.1526 14.3555 18.5591 14.082 17.9301 14.082C17.3062 14.082 16.7076 14.3505 16.1952 14.8621L14.5922 16.4576C14.4603 16.3867 14.3285 16.3209 14.2016 16.255C14.019 16.1639 13.8465 16.0777 13.6994 15.9866C12.1979 15.0343 10.8333 13.7933 9.52458 12.1875C8.89048 11.3872 8.46437 10.7135 8.15494 10.0297C8.5709 9.6498 8.95643 9.2547 9.33181 8.87479C9.47385 8.73296 9.61588 8.58607 9.75792 8.44424C10.8232 7.38051 10.8232 6.00273 9.75792 4.93901L8.37306 3.55616C8.21581 3.39913 8.05348 3.23704 7.9013 3.07495C7.59693 2.7609 7.27735 2.43671 6.94762 2.13279C6.45557 1.64652 5.86713 1.38818 5.24826 1.38818C4.62938 1.38818 4.0308 1.64652 3.52353 2.13279C3.51845 2.13786 3.51845 2.13786 3.51338 2.14292L1.78865 3.88034C1.13934 4.52871 0.76903 5.31891 0.687866 6.23574C0.56612 7.71483 1.00238 9.09261 1.33718 9.99424C2.15896 12.2078 3.38656 14.2593 5.21782 16.4576C7.43968 19.1068 10.113 21.1988 13.1668 22.6729C14.3335 23.225 15.8909 23.8784 17.6308 23.9898C17.7373 23.9949 17.8489 24 17.9504 24C19.1222 24 20.1063 23.5796 20.8774 22.7438C20.8824 22.7336 20.8926 22.7286 20.8977 22.7184C21.1614 22.3993 21.4658 22.1106 21.7854 21.8016C22.0035 21.5939 22.2267 21.3761 22.4448 21.1482C22.947 20.6264 23.2108 20.0186 23.2108 19.3956C23.2108 18.7675 22.942 18.1647 22.4296 17.6581L19.6447 14.8671ZM21.4607 20.201C21.4557 20.201 21.4557 20.206 21.4607 20.201C21.2629 20.4137 21.06 20.6062 20.8419 20.8189C20.5121 21.133 20.1773 21.4622 19.8628 21.832C19.3505 22.3791 18.7468 22.6374 17.9555 22.6374C17.8794 22.6374 17.7982 22.6374 17.7221 22.6323C16.2155 22.5361 14.8154 21.9485 13.7654 21.447C10.8942 20.0591 8.37306 18.0887 6.27802 15.5915C4.54822 13.5096 3.39164 11.5848 2.62565 9.5181C2.15389 8.25682 1.98141 7.27414 2.05751 6.34718C2.10823 5.75453 2.33651 5.26319 2.75754 4.84276L4.48735 3.11547C4.73591 2.88247 4.99969 2.75583 5.2584 2.75583C5.57799 2.75583 5.83669 2.94832 5.99902 3.11041C6.0041 3.11547 6.00917 3.12054 6.01424 3.1256C6.32368 3.41433 6.6179 3.71319 6.92733 4.03231C7.08459 4.1944 7.24692 4.35649 7.40924 4.52365L8.7941 5.90649C9.33181 6.44342 9.33181 6.93983 8.7941 7.47675C8.64699 7.62365 8.50495 7.77054 8.35785 7.91237C7.93174 8.348 7.52592 8.75323 7.08459 9.14832C7.07444 9.15846 7.0643 9.16352 7.05922 9.17365C6.62297 9.60927 6.70413 10.0348 6.79544 10.3235C6.80051 10.3387 6.80559 10.3539 6.81066 10.3691C7.17083 11.2403 7.6781 12.0609 8.44915 13.0385L8.45423 13.0436C9.8543 14.7658 11.3305 16.1081 12.9588 17.1364C13.1668 17.2681 13.3799 17.3745 13.5828 17.4758C13.7654 17.567 13.9379 17.6531 14.085 17.7443C14.1053 17.7544 14.1255 17.7696 14.1458 17.7797C14.3183 17.8658 14.4806 17.9063 14.648 17.9063C15.0691 17.9063 15.3329 17.6429 15.4191 17.5568L17.154 15.8245C17.3264 15.6523 17.6004 15.4446 17.92 15.4446C18.2345 15.4446 18.4932 15.6421 18.6504 15.8143C18.6555 15.8194 18.6555 15.8194 18.6606 15.8245L21.4557 18.6155C21.9781 19.1322 21.9781 19.664 21.4607 20.201Z" />
    <path d="M13.6384 5.70896C14.9675 5.93184 16.1748 6.55994 17.1386 7.52236C18.1024 8.48478 18.7264 9.69034 18.9546 11.0175C19.0104 11.3518 19.2996 11.5848 19.6293 11.5848C19.6699 11.5848 19.7054 11.5797 19.746 11.5747C20.1214 11.5139 20.3699 11.1593 20.3091 10.7845C20.0351 9.17874 19.2742 7.71484 18.1126 6.55488C16.9509 5.39491 15.4849 4.6351 13.8768 4.36157C13.5014 4.30079 13.1514 4.54899 13.0855 4.91876C13.0195 5.28853 13.263 5.64817 13.6384 5.70896Z" />
    <path d="M24.6564 10.5869C24.2049 7.94279 22.957 5.53674 21.0395 3.62203C19.122 1.70732 16.7124 0.461243 14.0645 0.0104253C13.6942 -0.0554245 13.3442 0.197844 13.2782 0.567616C13.2173 0.942453 13.4659 1.29196 13.8413 1.35781C16.2052 1.75798 18.3611 2.87742 20.0757 4.58445C21.7903 6.29654 22.9063 8.44933 23.307 10.8098C23.3628 11.1441 23.652 11.3771 23.9817 11.3771C24.0223 11.3771 24.0578 11.372 24.0984 11.367C24.4687 11.3113 24.7223 10.9567 24.6564 10.5869Z" />
  </symbol>

  <symbol id="icon-clock" viewBox="0 0 30 37" xmlns="http://www.w3.org/2000/svg">
    <path d="M3.7402 12.3638L2.23926 10.8724C1.42383 10.0626 1.42383 8.74442 2.23926 7.93407C3.05469 7.12399 4.38159 7.12399 5.19702 7.93407L6.79955 9.5261C8.47126 8.36942 10.3769 7.5688 12.3735 7.1846V5.11853H10.9791C10.594 5.11853 10.2819 4.80846 10.2819 4.42587V2.62497C10.2819 1.47911 11.2201 0.546997 12.3735 0.546997H17.9514C19.1048 0.546997 20.043 1.47911 20.043 2.62497V4.42587C20.043 4.80846 19.7309 5.11853 19.3458 5.11853H17.9514V7.1846C19.9477 7.56853 21.8536 8.36942 23.5254 9.5261L25.1279 7.93407C25.943 7.12399 27.2699 7.12399 28.0856 7.93407C28.9011 8.74415 28.9011 10.0624 28.0856 10.8724L26.5847 12.3638C28.6652 14.9383 29.8042 18.1451 29.8042 21.4652C29.8042 29.4857 23.2358 36.011 15.1625 36.011C7.08906 36.011 0.520704 29.4857 0.520704 21.4652C0.520704 18.1451 1.65969 14.9383 3.7402 12.3638ZM4.2111 8.91353C3.93902 8.6435 3.49699 8.64377 3.22518 8.91353C2.95364 9.18356 2.95364 9.62296 3.22518 9.89299L4.66593 11.324C4.99058 10.9929 5.33102 10.6771 5.68508 10.3781L4.2111 8.91353ZM18.6486 2.62497C18.6486 2.24292 18.3359 1.93231 17.9514 1.93231H12.3735C11.989 1.93231 11.6763 2.24292 11.6763 2.62497V3.73322H18.6486V2.62497ZM13.768 5.11853V6.98492C14.6921 6.89887 15.6325 6.89887 16.5569 6.98492V5.11853H13.768ZM27.0997 8.91353C26.8279 8.64377 26.3856 8.6435 26.1138 8.91353L24.6398 10.3781C24.9939 10.6771 25.3343 10.9929 25.659 11.324L27.0997 9.89299C27.3713 9.62296 27.3713 9.18356 27.0997 8.91353ZM15.1625 34.6257C22.467 34.6257 28.4097 28.7219 28.4097 21.4652C28.4097 18.2641 27.24 15.1799 25.1162 12.7802C24.5312 12.1192 23.8783 11.5153 23.1759 10.9845C21.4157 9.65381 19.3322 8.77798 17.1506 8.4514C16.4978 8.35426 15.8289 8.30475 15.1625 8.30475C14.496 8.30475 13.8271 8.35426 13.1745 8.4514C10.9927 8.77798 8.9092 9.65381 7.14871 10.9845C6.44658 11.5153 5.79375 12.1192 5.20873 12.7802C3.08492 15.1799 1.91516 18.2641 1.91516 21.4652C1.91516 28.7219 7.85792 34.6257 15.1625 34.6257Z" />
    <path d="M15.1622 23.5431C14.0088 23.5431 13.0705 22.611 13.0705 21.4652C13.0705 20.5623 13.6534 19.7922 14.465 19.5062V14.5386C14.465 14.156 14.7771 13.8459 15.1622 13.8459C15.5473 13.8459 15.8595 14.156 15.8595 14.5386V19.5062C16.6711 19.7922 17.2539 20.5623 17.2539 21.4652C17.2539 22.611 16.3156 23.5431 15.1622 23.5431ZM15.1622 20.7725C14.7777 20.7725 14.465 21.0831 14.465 21.4652C14.465 21.8472 14.7777 22.1578 15.1622 22.1578C15.5468 22.1578 15.8595 21.8472 15.8595 21.4652C15.8595 21.0831 15.5468 20.7725 15.1622 20.7725Z" />
    <path d="M7.73485 14.1576C7.74574 14.1449 7.75664 14.1322 7.76889 14.1203C7.78197 14.107 7.79586 14.0951 7.80975 14.0832C9.03861 12.8754 10.5567 11.9817 12.2042 11.4985C12.5738 11.3902 12.9613 11.5997 13.0703 11.9666C13.1792 12.3335 12.9684 12.7187 12.5991 12.827C11.3784 13.1852 10.2397 13.8043 9.26902 14.6309L9.73938 15.0981C10.0115 15.3687 10.0115 15.8073 9.73938 16.0779C9.6032 16.2131 9.42481 16.2808 9.24614 16.2808C9.06775 16.2808 8.88936 16.2131 8.75318 16.0779L8.28174 15.6095C7.02019 17.0668 6.27095 18.8607 6.12497 20.7725H6.7955C7.18061 20.7725 7.49273 21.0828 7.49273 21.4652C7.49273 21.8477 7.18061 22.1578 6.7955 22.1578H6.12497C6.27095 24.0699 7.02019 25.8635 8.28174 27.3208L8.75318 26.8525C9.02554 26.5822 9.46702 26.5822 9.73938 26.8525C10.0117 27.123 10.0117 27.5616 9.73938 27.8322L9.26793 28.3005C10.7348 29.5538 12.5405 30.2981 14.465 30.4434V29.777C14.465 29.3944 14.7771 29.0844 15.1622 29.0844C15.5473 29.0844 15.8594 29.3944 15.8594 29.777V30.4432C17.7839 30.2981 19.5896 29.5538 21.0565 28.3005L20.5851 27.8322C20.3127 27.5616 20.3127 27.123 20.5851 26.8525C20.8574 26.5822 21.2989 26.5822 21.5712 26.8525L22.0427 27.3208C23.3042 25.8635 24.0535 24.0696 24.1995 22.1578H23.5289C23.1438 22.1578 22.8317 21.8477 22.8317 21.4652C22.8317 21.0826 23.1438 20.7725 23.5289 20.7725H24.1995C24.0535 18.8607 23.3042 17.0668 22.0427 15.6095L21.5712 16.0779C21.4351 16.2131 21.2567 16.2808 21.0783 16.2808C20.8996 16.2808 20.7212 16.2131 20.5851 16.0779C20.313 15.8073 20.313 15.3687 20.5851 15.0981L21.0554 14.6309C20.0847 13.804 18.946 13.1852 17.7253 12.827C17.356 12.7187 17.1452 12.3335 17.2542 11.9666C17.3631 11.5997 17.7504 11.3905 18.1203 11.4985C19.7674 11.9814 21.285 12.8749 22.5136 14.0821C22.528 14.0943 22.5422 14.1068 22.5555 14.12C22.5675 14.1319 22.5781 14.1444 22.589 14.1568C24.5443 16.1174 25.6206 18.7105 25.6206 21.4652C25.6206 24.2195 24.5443 26.8124 22.5896 28.7727C22.5787 28.7854 22.5678 28.7981 22.5555 28.81C22.5436 28.8222 22.531 28.8327 22.5185 28.8436C20.545 30.7857 17.935 31.855 15.1622 31.855C12.3897 31.855 9.77968 30.786 7.80648 28.8441C7.79368 28.833 7.78088 28.8222 7.76889 28.81C7.75691 28.7984 7.74629 28.7857 7.7354 28.7735C5.78017 26.8129 4.70382 24.2198 4.70382 21.4652C4.70382 18.7108 5.78017 16.1179 7.73485 14.1576Z" />
    <path d="M15.1621 12.4606C14.7773 12.4606 14.4649 12.1503 14.4649 11.768C14.4649 11.3857 14.7773 11.0753 15.1621 11.0753C15.547 11.0753 15.8594 11.3857 15.8594 11.768C15.8594 12.1503 15.547 12.4606 15.1621 12.4606Z" />
  </symbol>

  <symbol id="icon-hired" viewBox="0 0 32 33" xmlns="http://www.w3.org/2000/svg">
    <path d="M28.3641 26.1921C28.7029 25.7154 28.9034 25.1305 28.9034 24.4985V20.7219C28.9034 20.3747 28.6269 20.0934 28.286 20.0934H25.5267C24.2512 20.0934 23.2135 21.1497 23.2135 22.4482V24.4985C23.2135 25.1301 23.4137 25.7146 23.7521 26.1911C23.33 26.2608 22.924 26.3985 22.5453 26.6C21.6875 25.297 20.2821 24.3983 18.6671 24.2467C18.6608 24.2449 18.6544 24.2436 18.648 24.242C19.2259 23.5852 19.5781 22.7186 19.5781 21.7696V16.6366C19.5781 16.2895 19.3016 16.0081 18.9607 16.0081H15.2105C13.5992 16.0081 12.2883 17.3426 12.2883 18.9829V21.7695C12.2883 22.7185 12.6405 23.5851 13.2183 24.242C13.212 24.2435 13.2055 24.2449 13.1992 24.2467C11.5841 24.3983 10.1786 25.297 9.3209 26.6002C8.94207 26.3988 8.53595 26.261 8.11409 26.1913C8.45254 25.7148 8.65289 25.1302 8.65289 24.4985V20.7219C8.65289 20.3747 8.37642 20.0934 8.03549 20.0934H5.27624C4.00071 20.0934 2.963 21.1497 2.963 22.4482V24.4985C2.963 25.1305 3.16346 25.7154 3.50229 26.1921C1.59127 26.51 0.12793 28.2019 0.12793 30.2358V32.0977C0.12793 32.4448 0.404398 32.7262 0.745322 32.7262H31.121C31.462 32.7262 31.7384 32.4448 31.7384 32.0977V30.2358C31.7384 28.2019 30.2751 26.51 28.3641 26.1921ZM4.19778 22.4482C4.19778 21.8429 4.68157 21.3504 5.27624 21.3504H7.4181V22.1158C7.4181 22.4912 7.11817 22.7965 6.74953 22.7965H4.19778V22.4482ZM4.19778 24.0534H6.74953C6.98475 24.0534 7.20998 24.0095 7.4181 23.9297V24.4985C7.4181 25.4023 6.69581 26.1377 5.80794 26.1377C4.92007 26.1377 4.19778 25.4023 4.19778 24.4985V24.0534ZM6.20597 27.3947L5.80794 27.7998L5.40991 27.3947H6.20597ZM8.43507 29.5671V31.4692H1.36271V30.2358C1.36271 28.8261 2.37666 27.6535 3.70097 27.4326L5.37138 29.1331C5.48721 29.2509 5.64421 29.3172 5.80794 29.3172C5.97167 29.3172 6.12868 29.2509 6.2445 29.1331L7.91541 27.432C8.21052 27.4809 8.49434 27.5778 8.75883 27.7195C8.54966 28.2955 8.43507 28.9179 8.43507 29.5671ZM15.9332 24.2231C14.6043 24.2231 13.5231 23.1224 13.5231 21.7696V20.9389H17.2129C17.6221 20.9389 18.0073 20.8325 18.3434 20.6456V21.7696C18.3434 23.1224 17.2622 24.2231 15.9332 24.2231ZM17.0094 25.48L15.9332 26.5756L14.8569 25.48H17.0094ZM13.523 18.9829H13.5231C13.5231 18.0357 14.28 17.2651 15.2105 17.2651H18.3433V18.5312C18.3433 19.1657 17.8362 19.682 17.2128 19.682H13.523V18.9829ZM22.1964 31.4692H20.9958H10.8706H9.66992V30.2122H13.69C14.0309 30.2122 14.3074 29.9308 14.3074 29.5837C14.3074 29.2366 14.0309 28.9552 13.69 28.9552H9.71505C9.97966 27.169 11.3842 25.7589 13.1477 25.5176L15.4966 27.9088C15.6172 28.0316 15.7752 28.0929 15.9332 28.0929C16.0912 28.0929 16.2492 28.0316 16.3697 27.9088L18.7187 25.5176C20.6793 25.7859 22.1964 27.499 22.1964 29.5671V31.4692ZM24.4483 22.4482C24.4483 21.8429 24.932 21.3504 25.5267 21.3504H27.6686V22.1158C27.6686 22.4912 27.3686 22.7965 27 22.7965H24.4483V22.4482ZM24.4483 24.0534H27C27.2352 24.0534 27.4604 24.0095 27.6686 23.9297V24.4985C27.6686 25.4023 26.9463 26.1377 26.0584 26.1377C25.1705 26.1377 24.4483 25.4023 24.4483 24.4985V24.0534ZM26.4564 27.3947L26.0584 27.7998L25.6604 27.3947H26.4564ZM23.4312 31.4692V29.5671C23.4312 28.9179 23.3166 28.2955 23.1074 27.7193C23.3718 27.5775 23.6555 27.4808 23.9507 27.4319L25.6218 29.1331C25.7376 29.2509 25.8946 29.3172 26.0584 29.3172C26.2221 29.3172 26.3791 29.2509 26.4949 29.1331L28.1653 27.4326C29.4896 27.6535 30.5036 28.8261 30.5036 30.2358V31.4692H23.4312Z" />
    <path d="M18.9763 4.65343C18.7351 4.408 18.3443 4.408 18.1031 4.65343L15.0736 7.73754L13.7639 6.40431C13.5227 6.15882 13.1319 6.15882 12.8908 6.40425C12.6497 6.64967 12.6497 7.04764 12.8908 7.29313L14.637 9.07078C14.7528 9.18863 14.9098 9.25487 15.0736 9.25487C15.2373 9.25487 15.3943 9.18863 15.5101 9.07078L18.9763 5.54226C19.2174 5.29683 19.2174 4.89886 18.9763 4.65343Z" />
    <path d="M18.4588 1.09199C18.1474 0.950642 17.7824 1.093 17.6435 1.41001C17.5045 1.72703 17.6444 2.09866 17.9559 2.24001C19.7462 3.05285 20.9031 4.86714 20.9031 6.86212C20.9031 9.65116 18.6741 11.9202 15.9344 11.9202C13.1947 11.9202 10.9657 9.65116 10.9657 6.86212C10.9657 4.87745 12.1142 3.06693 13.8917 2.24969C14.2024 2.10683 14.3406 1.73451 14.2002 1.41818C14.0599 1.1018 13.6939 0.961201 13.3835 1.10406C11.1647 2.12424 9.73096 4.38439 9.73096 6.86206C9.7309 10.3443 12.5138 13.1772 15.9344 13.1772C19.355 13.1772 22.1379 10.3443 22.1379 6.86212C22.1379 4.37157 20.6937 2.10664 18.4588 1.09199Z" />
    <path d="M15.9554 0.546997H15.9333C15.5924 0.546997 15.3159 0.828377 15.3159 1.1755C15.3159 1.52262 15.5924 1.804 15.9333 1.804H15.9496C15.9506 1.804 15.9515 1.804 15.9526 1.804C16.2922 1.804 16.5683 1.52457 16.5699 1.17845C16.5715 0.831331 16.2964 0.548631 15.9554 0.546997Z" />
    <path d="M16.3697 29.1392C16.255 29.0223 16.0957 28.9551 15.9333 28.9551C15.7709 28.9551 15.6116 29.0223 15.4968 29.1392C15.382 29.2561 15.3159 29.4183 15.3159 29.5836C15.3159 29.7489 15.3819 29.911 15.4968 30.0279C15.6117 30.1448 15.7709 30.2121 15.9333 30.2121C16.0957 30.2121 16.255 30.1448 16.3697 30.0279C16.4846 29.911 16.5507 29.7489 16.5507 29.5836C16.5507 29.4183 16.4846 29.2561 16.3697 29.1392Z" />
  </symbol>

  <symbol id="icon-detective" viewBox="0 0 31 27" xmlns="http://www.w3.org/2000/svg">
    <path d="M15.6226 8.21716C15.297 8.21716 15.0327 8.48402 15.0327 8.81328C15.0327 9.14231 15.297 9.4094 15.6226 9.4094C15.9483 9.4094 16.2126 9.14231 16.2126 8.81328C16.2126 8.48402 15.9483 8.21716 15.6226 8.21716Z" />
    <path d="M28.9552 11.7939H26.6598C25.4497 8.30245 23.694 2.18035 20.5134 0.447642C18.9227 -0.417896 17.4191 0.186607 16.8536 1.41471C16.613 1.93678 16.1325 2.21132 15.6228 2.21132C15.1061 2.21132 14.6296 1.93072 14.392 1.41517C13.8465 0.228987 12.3788 -0.430936 10.8439 0.321898C7.61236 1.90767 5.80524 8.27614 4.58574 11.7939H2.2903C1.31254 11.7939 0.520508 12.5941 0.520508 13.5823C0.520508 14.5682 1.31438 15.3707 2.2903 15.3707H28.9552C29.933 15.3707 30.725 14.5703 30.725 13.5823C30.725 12.5961 29.9311 11.7939 28.9552 11.7939ZM6.6581 9.40947H13.263C13.5889 9.40947 13.853 9.14238 13.853 8.81335C13.853 8.48409 13.5889 8.21723 13.263 8.21723H7.07059C8.84892 3.25336 10.5102 1.81103 11.3591 1.39445C12.2853 0.940373 13.0476 1.3204 13.3223 1.91792C13.755 2.85727 14.6503 3.40356 15.6228 3.40356C16.5975 3.40356 17.4916 2.85518 17.9233 1.91792C18.206 1.3034 18.9722 0.963193 19.9537 1.49714C20.8066 1.96193 22.4627 3.45223 24.1747 8.21723H17.9825C17.6566 8.21723 17.3926 8.48409 17.3926 8.81335C17.3926 9.14261 17.6566 9.40947 17.9825 9.40947H24.5876C24.8858 10.2785 25.1956 11.1752 25.4099 11.7939H5.83588C6.0495 11.1769 6.35853 10.2822 6.6581 9.40947ZM28.9552 14.1784H2.2903C1.96492 14.1784 1.70037 13.9109 1.70037 13.5823C1.70037 13.253 1.96446 12.9862 2.2903 12.9862H28.9552C29.2806 12.9862 29.5451 13.2535 29.5451 13.5823C29.5451 13.9113 29.2808 14.1784 28.9552 14.1784Z" />
    <path d="M14.4429 17.7552H5.00399C4.67815 17.7552 4.41406 18.0221 4.41406 18.3513V20.7358C4.41406 23.6941 6.79591 26.1009 9.72345 26.1009C11.9417 26.1009 13.9051 24.7221 14.686 22.645C15.2792 22.3716 15.9664 22.3716 16.5595 22.645C17.3405 24.7221 19.3038 26.1007 21.5221 26.1007C24.4496 26.1007 26.8315 23.6941 26.8315 20.7356V18.3511C26.8315 18.0218 26.5674 17.755 26.2415 17.755H16.8026C16.4768 17.755 16.2127 18.0218 16.2127 18.3511V18.9472H15.0328V18.3511C15.0328 18.0221 14.7687 17.7552 14.4429 17.7552ZM9.72345 24.9086C7.44645 24.9086 5.59393 23.0367 5.59393 20.7358V18.9474H13.853V20.7358C13.853 23.0427 12.0104 24.9086 9.72345 24.9086ZM17.3926 18.9474H25.6516V20.7358C25.6516 23.0367 23.7991 24.9086 21.5221 24.9086C19.2294 24.9086 17.3926 23.0372 17.3926 20.7358V18.9474ZM16.2127 20.1397V20.7358C16.2127 20.9263 16.2235 21.1161 16.2431 21.3045C15.8332 21.2288 15.4124 21.2288 15.0024 21.3045C15.022 21.1161 15.0328 20.9263 15.0328 20.7358V20.1397H16.2127Z" />
    <path d="M9.72261 22.5241C8.74669 22.5241 7.95281 21.7216 7.95281 20.7357C7.95281 20.4064 7.68873 20.1396 7.36288 20.1396C7.03704 20.1396 6.77295 20.4064 6.77295 20.7357C6.77295 22.379 8.09615 23.7163 9.72261 23.7163C10.0485 23.7163 10.3125 23.4492 10.3125 23.1202C10.3125 22.7909 10.0485 22.5241 9.72261 22.5241Z" />
    <path d="M21.5225 23.7163C23.149 23.7163 24.4722 22.379 24.4722 20.7357C24.4722 20.4064 24.2081 20.1396 23.8823 20.1396C23.5564 20.1396 23.2923 20.4064 23.2923 20.7357C23.2923 21.7216 22.4985 22.5241 21.5225 22.5241C21.1967 22.5241 20.9326 22.7909 20.9326 23.1202C20.9326 23.4492 21.1967 23.7163 21.5225 23.7163Z" />
  </symbol>

  <symbol id="icon-price" viewBox="0 0 33 33" xmlns="http://www.w3.org/2000/svg">
    <path d="M10.7945 8.4399C10.6776 8.32298 10.5155 8.25572 10.3502 8.25572C10.1849 8.25572 10.0227 8.32298 9.90583 8.4399C9.78899 8.55682 9.72168 8.719 9.72168 8.88433C9.72168 9.04965 9.78893 9.21183 9.90583 9.32875C10.0227 9.44573 10.1849 9.51293 10.3502 9.51293C10.5155 9.51293 10.6776 9.44567 10.7945 9.32875C10.9114 9.21183 10.9787 9.04965 10.9787 8.88433C10.9787 8.719 10.9114 8.55682 10.7945 8.4399Z" />
    <path d="M32.6111 3.1753L31.8339 2.39715L32.6108 1.62013C32.8563 1.37466 32.8563 0.976632 32.6108 0.7311C32.3653 0.48563 31.9675 0.48563 31.7219 0.7311L30.9455 1.50761L30.1798 0.740843C30.0619 0.622917 29.9021 0.556536 29.7355 0.556473L19.0977 0.550564C19.0971 0.550564 19.0965 0.550564 19.0959 0.550564C18.2559 0.550564 17.4662 0.87769 16.8722 1.47178L11.5638 6.78098C11.3184 7.02645 11.3184 7.42448 11.5638 7.67001C11.8093 7.91548 12.2071 7.91548 12.4527 7.67001L17.7611 2.36082C18.1177 2.00415 18.5917 1.80784 19.0959 1.80784C19.0963 1.80784 19.0967 1.80784 19.097 1.80784L29.4744 1.81362L30.0568 2.39671L27.7247 4.72909C26.7358 4.13669 25.4321 4.26587 24.5809 5.11712C24.0946 5.60354 23.8268 6.25018 23.8268 6.938C23.8268 7.62582 24.0946 8.27247 24.5809 8.75888C25.0828 9.26088 25.7422 9.51189 26.4015 9.51189C27.0608 9.51189 27.7201 9.26088 28.2221 8.75888C29.072 7.90882 29.202 6.60748 28.6128 5.61894L30.9452 3.28625L31.5378 3.87972L31.5321 14.2446C31.5317 14.7485 31.3354 15.2223 30.9791 15.5786L15.642 30.9179C15.2855 31.2745 14.8114 31.4709 14.3072 31.4709C13.803 31.4709 13.3289 31.2745 12.9724 30.9179L2.42522 20.3691C2.0686 20.0125 1.87225 19.5383 1.87225 19.034C1.87225 18.5298 2.0686 18.0556 2.42522 17.699L9.20017 10.923C9.4456 10.6776 9.4456 10.2795 9.20017 10.034C8.95468 9.78853 8.55683 9.78853 8.31127 10.034L1.53632 16.81C0.942374 17.404 0.615234 18.1939 0.615234 19.034C0.615234 19.8742 0.942374 20.6641 1.53632 21.2581L12.0835 31.8069C12.6966 32.4201 13.5018 32.7267 14.3072 32.7267C15.1126 32.7267 15.9178 32.4201 16.5309 31.8069L31.8679 16.4675C32.4614 15.8739 32.7885 15.0847 32.789 14.2451L32.7949 3.61985C32.795 3.45315 32.7289 3.29323 32.6111 3.1753ZM27.3332 7.86978C27.0843 8.11871 26.7534 8.25581 26.4015 8.25581C26.0495 8.25581 25.7187 8.11871 25.4698 7.86978C24.956 7.35596 24.956 6.51985 25.4698 6.00603C25.7267 5.74906 26.064 5.62064 26.4015 5.62064C26.5286 5.62064 26.6556 5.63893 26.7785 5.67539L26.053 6.40092C25.8076 6.64639 25.8076 7.04442 26.053 7.28996C26.1758 7.41272 26.3366 7.47408 26.4974 7.47408C26.6583 7.47408 26.8191 7.41272 26.9419 7.28996L27.6653 6.56643C27.7959 7.01394 27.6854 7.51757 27.3332 7.86978Z" />
    <path d="M27.4632 13.2024L20.1386 5.8766C19.1683 4.90616 17.5895 4.90629 16.6193 5.8766L5.02826 17.4694C4.5582 17.9395 4.29932 18.5645 4.29932 19.2294C4.29932 19.8942 4.55814 20.5192 5.0282 20.9893L12.3528 28.315C12.8229 28.7851 13.4478 29.044 14.1125 29.044C14.7772 29.044 15.4022 28.7851 15.8721 28.315L27.4632 16.7222C27.9333 16.252 28.1921 15.6271 28.1921 14.9623C28.1921 14.2974 27.9333 13.6724 27.4632 13.2024ZM26.5743 15.8331L14.9833 27.4261C14.7507 27.6587 14.4414 27.7868 14.1125 27.7868C13.7837 27.7868 13.4744 27.6587 13.2418 27.426L5.9171 20.1003C5.68449 19.8677 5.5564 19.5584 5.5564 19.2294C5.55634 18.9004 5.68449 18.5911 5.9171 18.3585L17.5082 6.76564C17.7483 6.52551 18.0636 6.40545 18.379 6.40545C18.6943 6.40545 19.0097 6.52557 19.2497 6.76564L26.5743 14.0913C26.8069 14.324 26.935 14.6332 26.935 14.9623C26.935 15.2912 26.8069 15.6005 26.5743 15.8331Z" />
    <path d="M21.1098 13.1219C21.3553 12.8764 21.3553 12.4784 21.1098 12.2328C20.8643 11.9874 20.4665 11.9874 20.2209 12.2328L19.859 12.5948C18.8927 11.9978 17.6528 12.078 16.869 12.8618C16.412 13.3188 16.1782 13.9395 16.2106 14.6094C16.242 15.2564 16.5205 15.874 16.9949 16.3484C16.9949 16.3484 16.995 16.3484 16.995 16.3485C17.5005 16.8543 17.5569 17.6207 17.1208 18.057C16.6844 18.4933 15.918 18.4368 15.4123 17.9311C14.9066 17.4253 14.8501 16.6588 15.2864 16.2224C15.5318 15.9769 15.5318 15.5789 15.2864 15.3334C15.0409 15.0879 14.643 15.0879 14.3975 15.3334C13.6137 16.1172 13.5337 17.3573 14.1306 18.3239L13.7012 18.7533C13.4557 18.9988 13.4557 19.3968 13.7012 19.6423C13.8242 19.7652 13.9851 19.8266 14.1459 19.8266C14.3068 19.8266 14.4676 19.7652 14.5903 19.6424L15.02 19.2127C15.4422 19.4735 15.9165 19.6057 16.3823 19.6057C16.9825 19.6056 17.5684 19.3873 18.0097 18.946C18.9359 18.0196 18.8796 16.456 17.8843 15.46C17.8841 15.4598 17.884 15.4596 17.8838 15.4594C17.6308 15.2063 17.4825 14.8829 17.4662 14.5486C17.4512 14.2373 17.5547 13.954 17.7579 13.7508C18.1941 13.3145 18.9604 13.3709 19.4662 13.8765C19.4662 13.8766 19.4662 13.8766 19.4663 13.8767C19.4664 13.8768 19.4664 13.8768 19.4664 13.8768C19.972 14.3826 20.0284 15.149 19.5921 15.5853C19.3467 15.8308 19.3467 16.2288 19.5921 16.4743C19.7149 16.5971 19.8757 16.6585 20.0365 16.6585C20.1974 16.6585 20.3582 16.5971 20.481 16.4743C21.2647 15.6904 21.3448 14.4503 20.7479 13.4838L21.1098 13.1219Z" />
    <path d="M14.7493 23.5431L11.5212 20.3145C11.2758 20.0692 10.8779 20.0691 10.6323 20.3145C10.3869 20.5599 10.3869 20.958 10.6323 21.2035L13.8605 24.4321C13.9832 24.5548 14.1441 24.6163 14.3049 24.6163C14.4657 24.6163 14.6266 24.5548 14.7493 24.4321C14.9947 24.1867 14.9947 23.7886 14.7493 23.5431Z" />
    <path d="M9.79888 18.5923C9.68204 18.4754 9.52045 18.4081 9.35458 18.4081C9.18929 18.4081 9.02776 18.4754 8.91023 18.5923C8.79333 18.7092 8.72607 18.8714 8.72607 19.0373C8.72607 19.2027 8.79326 19.3648 8.91023 19.4818C9.02713 19.5987 9.18929 19.6659 9.35458 19.6659C9.52051 19.6659 9.68204 19.5987 9.79888 19.4818C9.91641 19.3642 9.98366 19.2027 9.98366 19.0373C9.98366 18.8714 9.91641 18.7098 9.79888 18.5923Z" />
  </symbol>

  <symbol id="icon-fb" width="27" height="27" viewBox="0 0 27 27" xmlns="http://www.w3.org/2000/svg">
    <path fill-rule="evenodd" clip-rule="evenodd" d="M27 13.5C27 6.04462 20.9562 0 13.5 0C6.04379 0 0 6.04462 0 13.5C0 20.9562 6.04369 27 13.5 27C20.9562 27 27 20.9563 27 13.5ZM16.8836 9.29395H15.1437C14.6754 9.29395 14.3464 9.69053 14.3464 10.185V10.9604H16.8312L16.4288 13.4772H14.3455V20.2238H11.8025V13.4772H10.115V10.9604H11.8025V9.677H11.8075C11.8523 8.21392 12.3602 6.82092 14.8383 6.73315V6.72388H16.8836V9.29395Z" />
  </symbol>

  <symbol id="icon-ok" width="27" height="26" viewBox="0 0 27 26" xmlns="http://www.w3.org/2000/svg">
    <path d="M13.8512 10.9569C14.8668 10.9569 15.6568 10.1212 15.638 9.21119C15.6568 8.3012 14.8857 7.44691 13.87 7.44691C12.892 7.44691 12.0833 8.22691 12.0833 9.19262C12.0833 10.1583 12.8732 10.9569 13.8512 10.9569Z" fill="#CDCDCD" />
    <path d="M13.701 0C6.44113 0 0.5354 5.8314 0.5354 12.9999C0.5354 20.187 6.44113 25.9999 13.701 25.9999C20.9797 25.9999 26.8667 20.1685 26.8667 12.9999C26.8855 5.8314 20.9797 0 13.701 0ZM13.8891 4.9214C16.2589 4.9214 18.215 6.85282 18.1962 9.21138C18.1962 11.5885 16.2213 13.5014 13.8139 13.4642C11.4441 13.4271 9.54445 11.5142 9.54445 9.19281C9.54445 6.83425 11.4817 4.9214 13.8891 4.9214ZM18.7228 14.9499C18.7228 14.9871 18.704 15.0056 18.704 15.0428C18.6475 15.4142 18.4595 15.7114 18.1397 15.9156C17.9328 16.0456 17.7071 16.1756 17.4814 16.2871C16.9172 16.5656 16.3153 16.7885 15.6947 16.9371C15.6195 16.9556 15.6195 16.9556 15.6759 17.0113C16.0144 17.3456 16.3718 17.6985 16.7103 18.0328C17.1429 18.4599 17.5943 18.9056 18.0269 19.3328C18.6475 19.9456 18.4783 20.967 17.6883 21.3385C17.5567 21.4128 17.4062 21.4313 17.2558 21.4685C17.1805 21.4685 17.0865 21.4685 17.0112 21.4685C16.9924 21.4685 16.9736 21.4685 16.9736 21.4499C16.6727 21.4128 16.4282 21.2642 16.2025 21.0599C15.4502 20.317 14.679 19.5556 13.9267 18.8128C13.8703 18.7571 13.8703 18.7571 13.8139 18.8128C13.0427 19.5742 12.2904 20.317 11.5193 21.0785C11.3876 21.2085 11.256 21.3013 11.0867 21.3756C10.9739 21.4313 10.8422 21.4499 10.7294 21.4685C10.6541 21.4685 10.5789 21.4685 10.4849 21.4685C10.4472 21.4685 10.4284 21.4499 10.3908 21.4499C9.883 21.357 9.54445 21.0785 9.39399 20.5956C9.24352 20.1128 9.35637 19.6856 9.71373 19.3328C10.0335 19.017 10.3344 18.7199 10.6541 18.4042C11.1243 17.9399 11.5945 17.4756 12.0459 17.0299C12.1023 16.9742 12.1023 16.9742 12.0271 16.9556C12.0083 16.9556 11.9707 16.9371 11.9519 16.9371C11.1055 16.7328 10.3344 16.3985 9.60088 15.9528C9.16829 15.6742 8.9614 15.2656 9.01783 14.7642C9.11187 13.8356 10.1651 13.3342 10.9551 13.8356C11.1055 13.9285 11.2372 14.0028 11.4064 14.0771C12.2716 14.5042 13.1932 14.6899 14.1524 14.6342C14.6226 14.6156 15.0928 14.5228 15.563 14.3742C16.0144 14.2256 16.4094 14.0214 16.8232 13.7985C17.5003 13.4085 18.3842 13.7242 18.6475 14.4485C18.6852 14.5599 18.704 14.6528 18.7228 14.7642C18.7228 14.8199 18.7228 14.8756 18.7228 14.9499Z" />
  </symbol>

  <symbol id="icon-vk" width="27" height="26" viewBox="0 0 27 26" xmlns="http://www.w3.org/2000/svg">
    <path d="M19.475 15.1271C18.3662 14.1029 18.287 14.1029 19.2374 12.9211C20.4254 11.4243 22.0095 9.53349 20.5838 9.53349H17.9701C17.4949 9.53349 17.4157 9.84862 17.2573 10.2425C16.6237 11.7394 15.3565 13.709 14.8812 13.3938C14.406 13.0787 14.6436 11.897 14.6436 10.0062C14.7228 9.76984 14.6436 9.53349 14.4852 9.37592C14.3268 9.21836 14.0892 9.06079 13.8516 9.06079C13.4556 8.98201 13.0596 8.90323 12.6636 8.90323C11.1587 8.90323 10.1291 9.53349 10.6835 9.61227C11.7131 9.76984 11.6339 11.9758 11.3963 12.9211C11.0003 14.5756 9.41624 11.6606 8.70342 10.1638C8.62421 9.76984 8.3074 9.53349 7.91139 9.53349H5.85212C5.53531 9.53349 5.2977 9.61227 5.2977 9.84862C5.2977 10.2425 7.27777 14.1029 9.09943 16.0725C10.9211 17.9632 12.7428 17.8057 14.01 17.8057C14.1684 17.8057 14.3268 17.7269 14.406 17.6481C14.4852 17.5693 14.5644 17.4118 14.5644 17.2542C14.5644 15.9937 15.0396 15.3634 15.9109 16.23C16.8613 17.1754 17.0989 17.8057 18.287 17.8057H20.4254C20.9799 17.8057 21.1383 17.6481 21.1383 17.4118C21.2175 16.8603 20.267 15.8361 19.475 15.1271ZM13.8516 0.000789162C21.2175 0.158354 27.0785 6.06705 26.9993 13.2363C26.9201 20.4055 20.8214 26.0778 13.4556 25.9991C6.01052 25.9203 0.0703125 20.1691 0.0703125 12.9999C0.149515 5.75192 6.32733 -0.0779935 13.8516 0.000789162Z" />
  </symbol>

</svg>
